<svg width="10" height="15" viewBox="0 0 10 15" fill="none" xmlns="http://www.w3.org/2000/svg">
<path d="M7.64824 1.72676L7.64838 1.72689C9.28439 3.36164 9.28426 6.01428 7.64805 7.64797L7.6474 7.64859L7.63864 7.6573L7.60751 7.68869C7.58092 7.71574 7.5429 7.75496 7.49508 7.80566C7.39948 7.90704 7.26454 8.05455 7.10338 8.2428C6.78148 8.61882 6.35277 9.15999 5.9236 9.8231C5.47602 10.5147 5.01878 11.3529 4.68566 12.285C4.35294 11.353 3.89625 10.5148 3.44919 9.82331C3.02051 9.1602 2.59229 8.61904 2.27074 8.24301C2.10977 8.05476 1.97498 7.90725 1.87948 7.80587C1.83172 7.75516 1.79374 7.71595 1.76718 7.68889L1.73608 7.6575L1.72733 7.64879L1.72545 7.64694C0.0911515 6.01263 0.0914761 3.3612 1.72667 1.72685L1.72671 1.7268C3.36289 0.0910411 6.01259 0.0911061 7.64824 1.72676ZM2.31273 4.69008C2.31273 6.0023 3.37486 7.06508 4.68586 7.06508C5.99996 7.06508 7.06273 6.00295 7.06273 4.69008C7.06273 3.3772 5.99996 2.31508 4.68586 2.31508C3.37486 2.31508 2.31273 3.37786 2.31273 4.69008Z" stroke="#1C3AA9"/>
</svg>
