<svg width="15" height="15" viewBox="0 0 15 15" fill="none" xmlns="http://www.w3.org/2000/svg">
<g clip-path="url(#clip0)">
<path d="M1.72804 4.83138L1.72798 4.83145C1.91555 4.96381 2.48536 5.35999 3.44043 6.02182C4.39496 6.68326 5.12709 7.19318 5.63633 7.55124C5.69576 7.59293 5.81712 7.68007 5.99741 7.81046L5.9975 7.81053C6.17635 7.93994 6.32213 8.04246 6.43578 8.11913L1.72804 4.83138ZM1.72804 4.83138L1.72013 4.82602M1.72804 4.83138L1.72013 4.82602M1.72013 4.82602C1.42929 4.629 1.14148 4.34892 0.860749 3.97367L0.860725 3.97363M1.72013 4.82602L0.860725 3.97363M7.23043 8.55692L7.23157 8.5573C7.34228 8.5943 7.42772 8.60683 7.49159 8.60683H7.5H7.50844C7.57228 8.60683 7.6578 8.59429 7.7686 8.55727L7.7696 8.55694C7.87903 8.52064 8.007 8.46187 8.15398 8.37528C8.31857 8.27804 8.45478 8.19279 8.56421 8.11908C8.67778 8.04252 8.82338 7.94005 9.0025 7.81049C9.18373 7.67928 9.30504 7.59241 9.36417 7.55093L9.36579 7.54979C9.87929 7.19259 11.1853 6.28571 13.2829 4.8295C13.6413 4.57915 13.938 4.2793 14.1764 3.92899L14.1765 3.92876C14.3995 3.60137 14.5 3.27679 14.5 2.9465C14.5 2.71358 14.4222 2.5257 14.2507 2.35603L14.2506 2.35597C14.0763 2.18344 13.8876 2.10718 13.6607 2.10718H1.33923C1.03477 2.10718 0.859254 2.20256 0.738161 2.35423L7.23043 8.55692ZM7.23043 8.55692C7.12087 8.52059 6.99295 8.46185 6.8457 8.37507L6.59172 8.80576M7.23043 8.55692L7.92702 9.03151C7.77632 9.08185 7.63677 9.10683 7.50844 9.10683H7.5H7.49159C7.36326 9.10683 7.22376 9.08188 7.07307 9.03151C6.9224 8.98155 6.76194 8.90609 6.59172 8.80576M6.59172 8.80576C6.42144 8.70535 6.27637 8.61464 6.15637 8.53378L6.8456 8.37501M6.59172 8.80576L6.8456 8.37501M6.8456 8.37501C6.68142 8.27819 6.54538 8.19297 6.43599 8.11927L6.8456 8.37501ZM0.860725 3.97363C0.590117 3.61197 0.5 3.33471 0.5 3.13053C0.5 2.78827 0.589011 2.54118 0.738111 2.3543L0.860725 3.97363Z" stroke="#1C3AA9"/>
<path d="M14.445 6.5482L14.4431 6.54951C12.6152 7.78668 11.2313 8.74548 10.2892 9.42719C9.96926 9.66283 9.70413 9.85093 9.49612 9.9885L14.445 6.5482ZM14.445 6.5482C14.4635 6.53559 14.4818 6.52289 14.5 6.51012M14.445 6.5482L14.5 6.51012M14.5 6.51012V12.0532C14.5 12.2882 14.4224 12.4763 14.2531 12.6456L14.253 12.6457C14.0838 12.815 13.8953 12.8927 13.6608 12.8927H1.33932C1.10464 12.8927 0.916211 12.815 0.747025 12.6457L0.746926 12.6456C0.57768 12.4764 0.5 12.2882 0.5 12.0532V6.50528C0.521965 6.52042 0.544083 6.53541 0.566352 6.55026C2.58552 7.92237 3.96457 8.87998 4.70967 9.4263C5.03025 9.66244 5.29582 9.85079 5.50386 9.98846L14.5 6.51012ZM7.50855 10.6783C7.87317 10.6783 8.24554 10.5911 8.62082 10.4351L6.37917 10.4351C6.75451 10.5911 7.12706 10.6783 7.49161 10.6783H7.50002H7.50855ZM5.50394 9.98851C5.73823 10.1436 6.03348 10.2915 6.37892 10.4349L5.50394 9.98851Z" stroke="#1C3AA9"/>
</g>
<defs>
<clipPath id="clip0">
<rect width="15" height="15" fill="white"/>
</clipPath>
</defs>
</svg>
