<svg width="8" height="15" viewBox="0 0 8 15" fill="none" xmlns="http://www.w3.org/2000/svg">
<path d="M0.5 13.0942V13.6364C0.500004 13.89 0.561872 14.0469 0.628964 14.1477C0.698114 14.2516 0.793834 14.327 0.904651 14.3825C1.01744 14.439 1.13627 14.4697 1.23112 14.4855C1.27736 14.4932 1.31479 14.4969 1.33871 14.4986C1.35058 14.4995 1.35886 14.4998 1.36293 14.4999M0.5 13.0942L6.12274 14.5H6.12276M0.5 13.0942H0.680777H2.7633M0.5 13.0942H6.98845M1.36293 14.4999L1.36245 14.5L1.36471 14.5M1.36293 14.4999L1.36326 14.5L1.36452 14.5L1.36568 14.5M1.36293 14.4999C1.36366 14.5 1.36426 14.5 1.36471 14.5M1.36471 14.5C1.36524 14.5 1.36557 14.5 1.36568 14.5M1.36471 14.5H2.83113M1.36568 14.5C1.36574 14.5 1.36574 14.5 1.3657 14.5H1.36568ZM2.83113 14.5C3.04771 14.7639 3.37637 14.9322 3.74422 14.9322C4.11209 14.9322 4.44075 14.7639 4.65733 14.5M2.83113 14.5C2.66388 14.2962 2.56347 14.0355 2.56347 13.7515C2.56347 13.5082 2.6371 13.2821 2.7633 13.0942M2.83113 14.5H3.74422H4.65733M4.65733 14.5H6.12374M4.65733 14.5C4.82457 14.2962 4.92498 14.0355 4.92498 13.7515C4.92498 13.5082 4.85134 13.2821 4.72515 13.0942M6.12374 14.5C6.12321 14.5 6.12288 14.5 6.12276 14.5M6.12374 14.5C6.12419 14.5 6.12478 14.5 6.12552 14.4999C6.12959 14.4998 6.13787 14.4995 6.14974 14.4986C6.17366 14.4969 6.21109 14.4932 6.25733 14.4855C6.35218 14.4697 6.47101 14.439 6.5838 14.3825C6.69462 14.327 6.79034 14.2516 6.85949 14.1477C6.92658 14.0469 6.98845 13.89 6.98845 13.6364V13.0942M6.12374 14.5L6.12599 14.5L6.12519 14.5L6.12393 14.5L6.12276 14.5M6.12276 14.5L6.98845 13.0942M6.98845 13.0942H7.30767V12.5942V1.70191V1.36358V1.20191H6.97913M6.98845 13.0942L6.12552 0.500055M6.98845 13.0942H6.80767H4.72515M6.98845 13.0942V12.5942V1.70191V1.36358C6.98845 1.30464 6.9851 1.25092 6.97913 1.20191M6.98845 13.0942L5.1857 0.5C5.24247 0.608014 5.26536 0.724685 5.26536 0.831212V0.871383C5.26536 0.976782 5.24317 1.09336 5.18635 1.20191H6.80767H6.97913M6.97913 1.20191C6.9594 1.04011 6.91098 0.929681 6.85948 0.852323C6.79033 0.748443 6.69461 0.673018 6.5838 0.617526C6.471 0.561045 6.35217 0.530314 6.25733 0.514483C6.21109 0.506765 6.17365 0.5031 6.14974 0.501389C6.13786 0.500539 6.12959 0.50019 6.12552 0.500055M6.12552 0.500055L6.12599 0.499999L6.12644 0.5C6.12667 0.5 6.12691 0.5 6.12691 0V0.5H6.12373C6.12306 0.499982 6.12272 0.499976 6.12272 0.499976L6.12274 0.499976L6.12393 0.499989L6.12519 0.499997L6.12552 0.500055ZM4.72515 13.0942C4.55494 12.8407 4.28913 12.6568 3.97944 12.5942H6.30767H6.80767V12.0942V2.20191V1.70191H6.30767H1.18078H0.680777V2.20191V12.0942V12.5942H1.18078H3.50901C3.19932 12.6568 2.9335 12.8407 2.7633 13.0942M4.72515 13.0942H3.92189C4.21161 13.1724 4.42498 13.4372 4.42498 13.7515C4.42498 14.1273 4.12002 14.4322 3.74422 14.4322C3.36845 14.4322 3.06347 14.1272 3.06347 13.7515C3.06347 13.4371 3.27685 13.1724 3.56656 13.0942H2.7633M0.680777 1.20191H0.509318C0.529045 1.0401 0.577463 0.929679 0.628957 0.852322C0.698106 0.748443 0.793824 0.673019 0.904642 0.617527C1.01743 0.561046 1.13627 0.530314 1.23111 0.514483C1.27735 0.506765 1.31479 0.5031 1.33871 0.501389C1.35058 0.500539 1.35886 0.50019 1.36293 0.500055C1.36367 0.50003 1.36427 0.500012 1.36472 0.5H2.30221C2.24479 0.609536 2.22307 0.726662 2.22307 0.831212V0.871383C2.22307 0.977665 2.24585 1.09407 2.30237 1.20191H0.680777Z" stroke="#1C3AA9"/>
</svg>
