<svg width="133" height="133" viewBox="0 0 133 133" fill="none" xmlns="http://www.w3.org/2000/svg">
<path fill-rule="evenodd" clip-rule="evenodd" d="M71.3681 0.180472C89.0155 1.47573 105.276 9.6546 116.837 23.0473C128.398 36.4399 134.115 53.7208 132.82 71.3681C131.524 89.0159 123.345 105.277 109.952 116.838C96.5596 128.398 79.2792 134.115 61.6314 132.819C43.9841 131.524 27.7238 123.346 16.1632 109.953C4.60173 96.5605 -1.11488 79.2796 0.180379 61.6319C1.47563 43.9845 9.65452 27.7238 23.0472 16.1628C36.4395 4.60181 53.7203 -1.11519 71.3681 0.180472V0.180472ZM71.2261 2.11365C106.786 4.72398 133.497 35.6665 130.886 71.2261C128.276 106.786 97.3335 133.497 61.7738 130.886C26.2141 128.276 -0.496374 97.3335 2.11396 61.7738C4.72389 26.2142 35.6668 -0.496281 71.2261 2.11365Z" fill="#FEFEFE"/>
<path fill-rule="evenodd" clip-rule="evenodd" d="M66.5032 11.6172C90.9829 11.6172 111.716 27.6453 118.789 49.7787H116.75C109.75 28.733 89.9 13.5556 66.5032 13.5556C43.1065 13.5556 23.2566 28.733 16.256 49.7787H14.2173C21.2902 27.6453 42.0232 11.6172 66.5032 11.6172V11.6172ZM118.789 83.2223C111.717 105.356 90.9833 121.384 66.5032 121.384C42.0232 121.384 21.2898 105.356 14.2173 83.2223H16.256C23.2566 104.268 43.1065 119.446 66.5032 119.446C89.9004 119.446 109.75 104.268 116.75 83.2223H118.789V83.2223Z" fill="#FEFEFE"/>
<path d="M63.6622 81.6692C63.6759 81.7525 63.6642 81.8334 63.6209 81.8815C63.5255 81.9867 63.3147 81.8929 63.2917 81.9463C63.2561 82.0304 63.8179 82.1764 64.1177 82.6679C64.2273 82.8475 64.3199 83.1032 64.3911 83.0866C64.43 83.0777 64.4182 82.998 64.4611 82.9822C64.5671 82.943 64.7046 83.4078 65.0707 83.5255C65.2107 83.5704 65.2143 83.5101 65.3878 83.5534C65.635 83.6149 65.7875 83.7771 65.9861 83.9883C66.0832 84.0914 66.2272 84.2463 66.3563 84.4882C66.5193 84.7936 66.4594 84.8652 66.5905 85.0651C66.7155 85.2556 66.8821 85.3486 67.2158 85.5347C67.6503 85.777 67.734 85.7293 68.0192 85.9392C68.27 86.1237 68.2085 86.1629 68.4707 86.3429C68.7061 86.5043 68.8416 86.5314 69.0499 86.7313C69.0985 86.7778 69.0681 86.7543 69.27 86.9796C69.6069 87.3558 69.664 87.3906 69.7174 87.4141C69.9002 87.4946 69.9479 87.4052 70.1542 87.4889C70.3407 87.5642 70.5454 87.7353 70.5207 87.8688C70.4924 88.0197 70.1866 88.0411 70.1951 88.1042C70.2036 88.1669 70.5191 88.2098 70.8217 88.1212C70.9782 88.0755 71.1542 88.0241 71.1975 87.8862C71.2557 87.7009 71.0498 87.4396 70.8391 87.3939C70.7189 87.368 70.6854 87.4311 70.5102 87.4084C70.4827 87.4048 70.1979 87.3656 70.1627 87.2256C70.1373 87.1237 70.2687 87.067 70.2679 86.9432C70.2671 86.7867 70.0563 86.6714 69.9398 86.6059C69.3031 86.2483 68.8913 86.0169 68.9051 85.845C68.916 85.7087 69.1959 85.5808 69.4476 85.5873C69.9362 85.6003 70.2663 86.1196 70.3088 86.0808C70.3395 86.0533 70.1603 85.7884 69.9657 85.5655C69.8796 85.4664 69.7602 85.33 69.5798 85.1889C69.145 84.8491 69.0155 85.0004 68.7336 84.7225C68.4929 84.485 68.4961 84.284 68.2324 84.1679C68.1713 84.1412 68.0698 84.1072 68.0548 84.032C68.0334 83.9248 68.2093 83.843 68.183 83.7654C68.1596 83.6954 67.9881 83.6792 67.8582 83.6986C67.6932 83.7237 67.6519 83.7985 67.4942 83.8406C67.3206 83.8871 67.1697 83.8503 67.1111 83.8358C66.7717 83.7524 66.7952 83.4725 66.3971 83.2225C66.1868 83.0906 66.1334 83.1392 65.7984 82.9386C65.4853 82.7513 65.4473 82.6582 65.4396 82.5971C65.4178 82.4244 65.6229 82.3641 65.6496 82.1837C65.6746 82.015 65.5226 81.8824 65.2544 81.668H63.661L63.6622 81.6692Z" fill="#FEFEFE"/>
<path d="M71.6697 88.1854C71.5722 88.0369 71.2122 88.0483 71.1357 88.1801C71.0953 88.2501 71.1564 88.3177 71.1042 88.4277C71.0569 88.5276 70.9804 88.5268 70.9646 88.5859C70.9201 88.7529 71.4351 89.1178 71.59 89.0053C71.6523 88.96 71.6013 88.8779 71.6414 88.5527C71.6721 88.3047 71.7138 88.253 71.6697 88.1854V88.1854Z" fill="#FEFEFE"/>
<path d="M72.3644 88.702C72.3316 88.6874 72.1164 88.5968 71.9659 88.7202C71.8345 88.8278 71.8353 89.03 71.8911 89.157C71.9502 89.2917 72.0719 89.3459 72.2232 89.4135C72.3438 89.4673 72.4328 89.5069 72.5363 89.4722C72.6302 89.4406 72.7151 89.3548 72.7341 89.2521C72.7548 89.1417 72.692 89.0547 72.5994 88.9269C72.5274 88.827 72.4716 88.7497 72.364 88.702H72.3644Z" fill="#FEFEFE"/>
<path d="M73.0877 88.75C73.0643 88.7536 73.0825 88.8843 73.0711 89.125C73.0602 89.3584 73.0335 89.4579 73.0816 89.4846C73.1371 89.5153 73.2552 89.4308 73.2483 89.4118C73.237 89.381 72.8733 89.4316 72.8454 89.5614C72.8288 89.6403 72.9401 89.7342 73.0189 89.7787C73.1739 89.8656 73.2649 89.7977 73.4522 89.8341C73.7653 89.8952 73.8676 90.1549 73.9776 90.1023C74.0687 90.059 74.0598 89.8511 74.0367 89.7386C73.9801 89.4623 73.7426 89.3054 73.7054 89.2811C73.493 89.1452 73.3749 89.2144 73.2418 89.0712C73.1116 88.9304 73.1156 88.7451 73.0881 88.7496L73.0877 88.75Z" fill="#FEFEFE"/>
<path d="M73.369 90.5846C73.4592 90.4839 73.8313 90.6364 74.0724 90.8382C74.2463 90.9835 74.339 91.1432 74.3924 91.2375C74.5307 91.481 74.5704 91.6982 74.5841 91.803C74.6068 91.9749 74.6428 92.248 74.5323 92.3058C74.413 92.3685 74.125 92.1772 74.0344 91.9215C73.9595 91.7108 74.0777 91.6206 74.0008 91.4458C73.8697 91.1477 73.3706 91.0506 73.3556 91.0805C73.3471 91.0979 73.4774 91.1958 73.5142 91.1699C73.5817 91.1222 73.2638 90.7031 73.3685 90.5854L73.369 90.5846Z" fill="#FEFEFE"/>
<path d="M71.6114 86.5684C71.5127 86.5401 71.4071 86.5098 71.3679 86.5563C71.2931 86.6453 71.45 87.034 71.6956 87.0446C71.8307 87.0506 71.9832 86.9414 71.9864 86.8362C71.9909 86.6772 71.6519 86.5798 71.6118 86.5684H71.6114Z" fill="#FEFEFE"/>
<path d="M75.0027 90.1519C74.8764 90.1074 74.8514 90.1507 74.6196 90.0969C74.4198 90.0504 74.3417 89.9958 74.3142 90.0265C74.2697 90.0759 74.4068 90.2915 74.5605 90.4602C74.6944 90.6074 74.8959 90.7789 75.522 91.0548C75.9071 91.2243 75.8724 91.1778 76.3837 91.3974C76.7825 91.5689 77.1219 91.7243 77.1219 91.7243C77.3877 91.846 77.4358 91.8727 77.5624 91.9189C77.8274 92.0155 77.9758 92.0297 78.2392 92.0867C78.8698 92.2239 79.2124 92.401 79.2286 92.3642C79.242 92.3335 79.0118 92.1822 78.7497 92.0766C78.3318 91.9087 78.2748 92.0358 78.0191 91.8889C77.7687 91.7453 77.6546 91.5273 77.3436 91.3687C77.2724 91.3323 77.2202 91.3141 77.1696 91.3024C77.0293 91.2696 76.9496 91.2979 76.7866 91.2975C76.6644 91.2975 76.5815 91.2971 76.4888 91.266C76.2809 91.1956 76.2846 91.056 76.0293 90.9241C75.91 90.8627 75.9116 90.8946 75.7898 90.8307C75.6729 90.7696 75.6119 90.7094 75.4039 90.5047C75.0896 90.196 75.0666 90.1742 75.0027 90.1515V90.1519Z" fill="#FEFEFE"/>
<path d="M75.6706 93.5384C75.7268 93.7503 76.2867 93.8434 76.4012 93.6759C76.4614 93.5877 76.3959 93.4332 76.317 93.3507C76.1516 93.1783 75.8227 93.2155 75.7094 93.3798C75.6973 93.3976 75.6508 93.4647 75.6702 93.5384H75.6706Z" fill="#FEFEFE"/>
<path d="M75.1502 92.6859C75.054 92.5933 74.8408 92.6519 74.802 92.7547C74.755 92.8789 74.954 93.0876 75.0718 93.0532C75.1773 93.0225 75.2546 92.7866 75.1502 92.6859V92.6859Z" fill="#FEFEFE"/>
<path d="M80.6535 93.2695C80.6091 93.1894 80.4505 93.2679 80.1625 93.2258C79.9351 93.1927 79.7551 93.1029 79.5557 93.0037C79.277 92.865 79.2151 92.7813 79.084 92.8051C78.9198 92.8351 78.9303 92.9831 78.7778 93.0365C78.4785 93.1413 78.2362 92.6389 77.8272 92.7012C77.6266 92.7315 77.4344 92.8909 77.3895 92.9281C77.3418 92.9677 77.2172 93.0778 77.0987 93.1866C76.9838 93.2918 76.9454 93.3302 76.8778 93.3407C76.7282 93.3634 76.6084 93.221 76.5959 93.2355C76.5805 93.2529 76.7193 93.4884 76.9818 93.6117C77.3187 93.7703 77.6848 93.6611 77.8559 93.6105C78.1338 93.5276 78.1168 93.458 78.3672 93.399C78.5141 93.3646 78.7184 93.3759 79.1217 93.401C79.55 93.4273 79.764 93.4406 79.868 93.4649C80.1956 93.5409 80.3356 93.6461 80.4905 93.5632C80.6123 93.4977 80.694 93.3427 80.654 93.2695H80.6535Z" fill="#FEFEFE"/>
<path d="M81.1079 92.5161C81.0836 92.4615 80.9016 92.5679 80.6398 92.4878C80.4509 92.4299 80.4619 92.3486 80.2806 92.2973C80.0096 92.2204 79.7693 92.3405 79.7119 92.3693C79.637 92.4069 79.4615 92.5084 79.4793 92.5659C79.5003 92.6346 79.7612 92.5242 80.1018 92.614C80.404 92.6941 80.4453 92.8462 80.6584 92.8361C80.9202 92.8239 81.137 92.5812 81.1079 92.5161V92.5161Z" fill="#FEFEFE"/>
<path d="M81.9286 93.7719C81.9238 93.5741 81.5888 93.3937 81.4226 93.4997C81.351 93.5454 81.3162 93.6404 81.3251 93.7197C81.3478 93.9175 81.6479 94.0639 81.8158 93.9648C81.8793 93.9276 81.9307 93.8512 81.9286 93.7719Z" fill="#FEFEFE"/>
<path d="M77.0592 87.6854C76.9472 87.8003 76.8295 87.8901 76.6952 87.8775C76.5228 87.8618 76.3566 87.6818 76.3287 87.4977C76.2911 87.2497 76.5233 87.1252 76.9035 86.5904C77.1341 86.2652 77.4148 85.8704 77.3003 85.6976C77.183 85.5209 76.7397 85.7134 76.6891 85.607C76.6029 85.4246 77.9629 84.9901 78.9766 83.7483C79.1344 83.5549 79.2517 83.3814 79.3807 83.2212H79.8718C79.6724 83.5666 79.5304 84.082 79.7525 84.319C79.886 84.461 80.0223 84.3664 80.4988 84.4331C81.1816 84.529 81.1331 84.7563 81.9442 84.9323C82.1881 84.9853 82.3754 85.0043 82.4927 85.1657C82.614 85.3327 82.6266 85.6026 82.5145 85.6843C82.3936 85.7725 82.2443 85.554 81.7957 85.4541C81.5938 85.4092 81.1954 85.3202 80.7937 85.4205C80.7084 85.442 80.6008 85.4772 80.4843 85.4315C80.3091 85.3627 80.2844 85.1778 80.1833 85.179C80.0862 85.1802 79.9835 85.3506 79.958 85.5148C79.9204 85.7587 80.0773 85.8335 80.1651 86.2583C80.2068 86.4601 80.2399 86.6337 80.1445 86.7651C80.0878 86.8432 80.0332 86.8404 79.9119 86.9617C79.8039 87.0697 79.7355 87.1381 79.7137 87.2319C79.6554 87.4827 79.9924 87.6502 79.9208 87.9249C79.9086 87.9718 79.8945 88.0256 79.8467 88.06C79.6582 88.1971 79.2792 87.7914 79.0462 87.9265C78.9265 87.9957 78.9645 88.1389 78.8367 88.189C78.6995 88.2424 78.4839 88.1457 78.4273 87.9985C78.3565 87.8153 78.5454 87.5883 78.6607 87.4496C78.8553 87.2162 79.0041 87.183 78.9981 87.0714C78.9892 86.9011 78.6368 86.901 78.5737 86.7028C78.4714 86.3829 79.263 85.9844 79.168 85.7409C79.113 85.6001 78.7833 85.571 78.5337 85.6349C78.1166 85.7421 77.8848 86.1207 77.7271 86.3869C77.4002 86.9383 77.4597 87.2736 77.0584 87.685L77.0592 87.6854ZM82.8535 83.2216C82.9461 83.3624 83.0456 83.4979 83.2673 83.6362C83.5905 83.8381 83.9109 83.8818 84.0327 83.8975C84.7127 83.9841 85.1932 83.6876 85.2628 83.8158C85.3032 83.8899 85.1742 84.046 85.0646 84.1362C84.8607 84.3049 84.5917 84.3559 83.9615 84.3037C83.2956 84.2483 82.9627 84.2207 82.705 84.099C82.5246 84.014 82.2168 83.7426 81.6497 83.2216H82.8531H82.8535Z" fill="#FEFEFE"/>
<path d="M79.5334 88.3535C79.353 88.2734 79.173 88.3685 79.065 88.4259C79.0229 88.4482 78.6674 88.6367 78.6884 88.9122C78.6896 88.9287 78.7021 89.0626 78.8041 89.1407C79.065 89.3409 79.7523 89.0529 79.7762 88.7176C79.7863 88.5736 79.6742 88.4162 79.5334 88.3531V88.3535Z" fill="#FEFEFE"/>
<path d="M83.5712 88.6428C83.4583 88.5967 83.3317 88.5469 83.2116 88.6031C83.0575 88.6747 83.0077 88.8762 83.0093 89.0048C83.0126 89.2641 83.2302 89.5505 83.534 89.5748C83.801 89.5962 84.0853 89.411 84.1116 89.1897C84.1484 88.8786 83.6561 88.6776 83.5716 88.6428H83.5712Z" fill="#FEFEFE"/>
<path d="M82.3889 86.5235C82.38 86.4046 82.5904 86.2428 82.8036 86.2307C83.0026 86.2193 83.1701 86.3403 83.9111 87.2084C84.3921 87.7723 84.4184 87.8346 84.4083 87.8443C84.3719 87.8791 83.9314 87.1873 83.0649 86.8427C82.7109 86.7019 82.3991 86.6639 82.3889 86.5235V86.5235Z" fill="#FEFEFE"/>
<path d="M85.5506 87.5187C85.4596 87.5401 85.3625 87.6186 85.3488 87.7193C85.3289 87.8678 85.498 88.0122 85.6614 88.0296C85.7998 88.0445 85.9669 87.9717 85.9907 87.8641C86.0251 87.7092 85.7646 87.4677 85.5506 87.5187Z" fill="#FEFEFE"/>
<path d="M85.8398 86.537C85.6852 86.4711 85.4708 86.5945 85.4446 86.7757C85.4203 86.9436 85.5659 87.1118 85.7221 87.1131C85.826 87.1139 85.9126 87.0415 85.9546 86.9666C86.0343 86.8238 85.9903 86.6009 85.8398 86.537V86.537Z" fill="#FEFEFE"/>
<path d="M87.922 84.7088C87.89 84.6639 87.6198 84.8132 87.3488 84.9624C86.9414 85.1869 86.9236 85.2529 86.9301 85.2865C86.9414 85.3475 87.0494 85.3843 87.1307 85.3876C87.2367 85.3912 87.329 85.3382 87.5765 85.0988C87.8225 84.8605 87.945 84.7416 87.922 84.7088V84.7088Z" fill="#FEFEFE"/>
<path d="M88.5137 84.6525C88.4708 84.5776 88.1715 84.5837 88.1189 84.7403C88.0893 84.8276 88.1403 84.9506 88.2147 84.9725C88.3466 85.0113 88.561 84.7354 88.5133 84.6521L88.5137 84.6525Z" fill="#FEFEFE"/>
<path d="M88.0712 85.3127C87.9603 85.2621 87.7387 85.8502 87.3811 85.8409C87.2949 85.8385 87.1703 85.8005 86.9555 85.8244C86.8835 85.8324 86.8463 85.8365 86.8006 85.8547C86.6376 85.9194 86.5603 86.076 86.498 86.2058C86.4588 86.2879 86.4256 86.4214 86.3613 86.6852C86.3031 86.9238 86.2933 86.9926 86.2986 87.0796C86.3059 87.2049 86.3447 87.3975 86.4022 87.4007C86.4665 87.4048 86.5061 87.1673 86.6631 86.7361C86.7873 86.3943 86.9151 86.0501 87.0324 86.0602C87.1525 86.0703 87.1283 86.4408 87.356 86.529C87.5028 86.5861 87.6982 86.5047 87.7083 86.4291C87.7201 86.3401 87.4677 86.2924 87.4693 86.1848C87.4709 86.0578 87.8232 86.0659 88.0081 85.807C88.146 85.6144 88.1404 85.3434 88.0716 85.3118L88.0712 85.3127Z" fill="#FEFEFE"/>
<path d="M87.2489 88.9428C87.0579 88.6819 86.5216 88.7405 86.4402 88.9213C86.3484 89.1264 86.7825 89.624 87.0769 89.5496C87.2121 89.5156 87.2841 89.3695 87.2901 89.3566C87.3593 89.2114 87.3221 89.0431 87.2489 88.9424V88.9428Z" fill="#FEFEFE"/>
<path d="M86.2989 89.8343C86.1602 89.7513 86.1242 89.8181 85.8815 89.7052C85.7921 89.6636 85.7888 89.651 85.4798 89.4528C85.2537 89.3076 85.1748 89.2627 85.0551 89.2352C84.9543 89.2117 84.8378 89.1866 84.7569 89.2538C84.6906 89.3092 84.6578 89.4196 84.687 89.509C84.7424 89.6797 84.9762 89.6231 85.1926 89.8314C85.3775 90.009 85.2893 90.1296 85.4547 90.242C85.6558 90.3791 85.8257 90.2279 86.0651 90.3828C86.2148 90.4795 86.2933 90.6324 86.2965 90.6388C86.375 90.7954 86.3487 90.9163 86.4656 91.0377C86.4923 91.0652 86.5615 91.1372 86.6124 91.1194C86.7131 91.0842 86.6711 90.7274 86.6638 90.6672C86.6347 90.4172 86.5861 90.007 86.2985 89.8347L86.2989 89.8343Z" fill="#FEFEFE"/>
<path d="M89.6939 88.8529C89.5673 88.8245 89.5313 88.8715 89.2182 88.8359C89.0685 88.8189 89.0527 88.8055 88.9941 88.8197C88.8254 88.8609 88.8043 89.0086 88.6102 89.066C88.554 89.083 88.4613 89.1105 88.4091 89.0656C88.3222 88.9908 88.4625 88.8144 88.3909 88.617C88.3246 88.4334 88.1033 88.3108 88.0281 88.3569C87.9888 88.3808 87.9973 88.4447 88.0155 88.7012C88.0475 89.1526 88.0329 89.1206 88.0451 89.1575C88.1373 89.4378 88.3537 89.439 88.4419 89.7428C88.4658 89.8257 88.4694 89.8933 88.4759 90.0175C88.4933 90.3564 88.4091 90.4017 88.4589 90.4932C88.5564 90.6716 88.9039 90.5466 89.4483 90.7707C89.5766 90.8232 89.6708 90.877 89.6878 90.9648C89.708 91.0688 89.6174 91.2108 89.509 91.2314C89.3294 91.265 89.2424 90.9393 88.9759 90.9244C88.8161 90.9155 88.7845 91.0295 88.6199 91.0045C88.507 90.9875 88.4799 90.928 88.2647 90.7832C88.0491 90.638 87.9363 90.5619 87.8861 90.5963C87.8032 90.6537 87.8703 91.0312 88.1086 91.2662C88.2898 91.445 88.49 91.4624 88.4909 91.5728C88.4909 91.606 88.4735 91.6638 88.2429 91.7929C87.863 92.0048 87.6369 92.0012 87.6268 92.0853C87.6159 92.178 87.8703 92.3483 88.1523 92.3535C88.6102 92.3616 88.9152 91.9288 89.0195 92.0113C89.1138 92.0861 88.8448 92.4207 88.9868 92.7115C89.0523 92.8454 89.1583 92.8749 89.2995 92.9716C89.486 93.099 89.5802 93.2386 89.9431 93.9404C90.2638 94.561 90.4244 94.8716 90.4471 94.9667C90.498 95.1799 90.5915 95.7077 90.3585 96.2506C90.2788 96.4367 90.1372 96.7664 89.8852 96.8064C89.6753 96.8396 89.598 96.6393 89.3209 96.6462C89.1243 96.6511 89.0867 96.7538 88.74 96.9116C88.31 97.1074 88.1268 97.0588 88.1049 97.1575C88.0637 97.3432 88.6494 97.7999 89.2368 97.7485C89.6101 97.7162 89.7865 97.4957 89.9722 97.6037C90.024 97.6336 90.1028 97.7048 90.1676 98.289C90.2315 98.863 90.2739 99.2464 90.1109 99.3253C89.9677 99.3945 89.7493 99.1894 89.7513 99.185C89.7554 99.1781 90.3909 99.71 90.9458 99.5324C91.0793 99.49 91.0737 99.4491 91.2326 99.4054C91.5935 99.3067 91.7221 99.4887 92.0409 99.4269C92.2286 99.3904 92.1913 99.3261 92.6569 99.0842C92.9446 98.935 93.0881 98.8601 93.2071 98.8654C93.5533 98.88 93.9089 99.2553 93.9283 99.6178C93.9421 99.8738 93.7758 99.886 93.7099 100.244C94.1249 100.455 94.4279 102.094 94.9675 100.097C95.0395 99.8293 95.0662 99.5769 95.0695 99.5438C95.116 99.0826 95.044 98.8569 95.2151 98.6506C95.2527 98.6049 95.3445 98.4944 95.4825 98.4771C95.6358 98.458 95.711 98.5709 95.8344 98.5284C95.9319 98.4949 95.9958 98.3852 96.0091 98.293C96.0318 98.1352 95.9088 98.0026 95.8206 97.8978C95.5986 97.6336 95.2652 97.2376 95.2818 96.8982C95.2964 96.6013 95.5674 96.5851 95.6281 96.2571C95.6766 95.9933 95.531 95.8461 95.2167 95.2927C94.7742 94.5128 94.8676 94.4598 94.451 93.8053C94.1941 93.4016 93.9461 93.0804 93.9461 93.0804C93.6448 92.6905 93.5966 92.6945 93.4757 92.4797C93.2225 92.0279 93.3135 91.7892 93.095 91.6703C92.892 91.5595 92.61 91.6541 92.4567 91.7459C92.2144 91.8916 92.2492 92.0594 92.0688 92.1237C91.769 92.2313 91.5538 91.8099 91.2375 91.8855C90.9495 91.9543 90.9984 92.3349 90.5935 92.5453C90.3811 92.6561 90.0648 92.7087 89.924 92.5667C89.8423 92.4846 89.8492 92.3673 89.8787 92.0327C89.9301 91.4527 89.956 91.1622 89.9702 91.1202C90.0652 90.8419 90.2367 90.5898 90.5648 90.1081C90.672 89.9511 90.765 89.8237 90.7246 89.6946C90.6817 89.5579 90.5353 89.5696 90.2958 89.407C89.9216 89.1534 89.9649 88.9123 89.6939 88.8524V88.8529Z" fill="#FEFEFE"/>
<path d="M91.985 90.0197C91.8753 90.0145 91.7451 90.1055 91.7176 90.2434C91.6909 90.3765 91.7706 90.5003 91.8794 90.5533C92.0064 90.6152 92.1658 90.5776 92.2277 90.4845C92.3284 90.3341 92.1779 90.0291 91.985 90.0197V90.0197Z" fill="#FEFEFE"/>
<path d="M88.3788 87.3831C88.2882 87.4122 88.2522 87.6165 88.3044 87.7698C88.3541 87.9167 88.4759 87.9899 88.5358 88.0259C88.6802 88.1129 88.9168 88.1784 88.9726 88.1007C89.0535 87.9879 88.7117 87.6347 88.6337 87.5542C88.5236 87.4406 88.4456 87.3617 88.3788 87.3835V87.3831Z" fill="#FEFEFE"/>
<path d="M91.8079 91.1102C91.6667 91.0977 91.5057 91.1753 91.4633 91.2987C91.3892 91.5135 91.6845 91.8412 91.9224 91.7914C92.0332 91.7679 92.1226 91.6644 92.1473 91.556C92.1926 91.357 92.0223 91.1292 91.8079 91.1102V91.1102Z" fill="#FEFEFE"/>
<path d="M81.5375 96.8348C81.4707 96.7454 81.2252 96.7661 81.0771 96.8955C81.0609 96.9093 80.9331 97.0245 80.9331 97.1851C80.9335 97.5031 81.4351 97.8412 81.8291 97.7527C82.0484 97.7033 82.2353 97.5213 82.209 97.4363C82.1928 97.3837 82.1018 97.3894 81.7761 97.2806C81.6066 97.2236 81.5662 97.2005 81.5407 97.156C81.4723 97.0371 81.5981 96.9161 81.5375 96.8348V96.8348Z" fill="#FEFEFE"/>
<path d="M82.9476 97.6625C82.808 97.5934 82.5419 97.5036 82.4719 97.5954C82.4343 97.6451 82.4589 97.741 82.5022 97.8005C82.594 97.9271 82.7518 97.8713 82.8072 97.9716C82.8744 98.0925 82.7118 98.294 82.6944 98.3154C82.6701 98.345 82.5702 98.4599 82.3999 98.5043C82.1786 98.5618 81.9824 98.4627 81.7773 98.3559C81.3522 98.1338 81.3449 97.9611 81.0901 97.9283C81.0092 97.9182 80.8567 97.9635 80.5516 98.0545C80.2503 98.1447 80.0994 98.1896 79.9518 98.2734C79.7192 98.4052 79.7475 98.4627 79.5023 98.5933C79.3931 98.6516 79.2705 98.6937 79.0258 98.7778C78.7034 98.8886 78.6185 98.8947 78.5768 98.8967C78.4575 98.9016 78.3604 98.8765 78.1707 98.8259C77.8293 98.7349 77.6582 98.6896 77.5368 98.5691C77.4195 98.4522 77.4765 98.417 77.3135 98.1508C77.1242 97.8413 76.9276 97.6937 76.9628 97.6468C76.9863 97.6156 77.0983 97.6488 77.0983 97.6702C77.0983 97.7034 76.8317 97.771 76.5838 97.7115C76.3544 97.6561 76.1724 97.5003 76.178 97.4898C76.1829 97.4813 76.3297 97.5367 76.3249 97.5715C76.3156 97.6391 75.7412 97.6027 75.7408 97.6164C75.7404 97.6249 75.9511 97.6399 75.9535 97.6249C75.956 97.6079 75.6878 97.6257 75.4976 97.4534C75.4398 97.4012 75.4204 97.3592 75.3544 97.341C75.2303 97.3058 75.1053 97.3996 75.0875 97.4138C75.0062 97.4765 75.0264 97.5125 74.9281 97.6261C74.8735 97.6896 74.8019 97.7706 74.6838 97.8151C74.6364 97.8329 74.5478 97.866 74.4475 97.8413C74.3298 97.8122 74.2914 97.7265 74.2275 97.7439C74.1741 97.7584 74.1676 97.8268 74.1344 97.883C74.0001 98.1079 73.484 98.0456 73.484 98.0517C73.484 98.0565 73.8577 98.0489 73.859 98.0679C73.8602 98.0832 73.6082 98.0646 73.2748 98.1629C73.1689 98.1941 73.0778 98.2305 73.0386 98.1892C72.9888 98.1366 73.0819 98.0214 73.02 97.8911C73.0111 97.8725 72.9767 97.8005 72.9197 97.7904C72.8113 97.7714 72.6867 97.9866 72.5896 98.1569C72.393 98.5031 72.4108 98.6265 72.2943 98.6726C72.145 98.7317 71.9132 98.6099 71.8251 98.4336C71.6738 98.1314 71.9751 97.737 72.0532 97.7552C72.0852 97.7625 72.1102 97.8466 72.0819 97.9004C72.0289 98.0007 71.8129 97.9493 71.368 97.951C70.8951 97.9526 70.8178 98.012 70.7871 98.0654C70.7361 98.1548 70.819 98.2236 70.7863 98.3672C70.745 98.5484 70.5585 98.6751 70.4198 98.726C70.0925 98.8462 69.9538 98.5707 69.5901 98.6483C69.2944 98.711 69.3082 98.9093 68.974 98.9659C68.7641 99.0015 68.7192 98.9299 68.4457 98.9647C68.1383 99.0039 68.1326 99.1022 67.9466 99.1083C67.5882 99.1196 67.5283 98.756 67.0138 98.5836C66.8087 98.5149 66.6359 98.5116 66.335 98.5064C65.9345 98.4991 65.8613 98.5618 65.621 98.5565C64.9548 98.5416 64.3792 98.0319 64.4156 97.9502C64.4419 97.8903 64.8245 97.9886 64.8217 98.0209C64.8189 98.0529 64.435 98.0529 64.1138 98.025C63.8363 98.0007 63.795 97.972 63.5859 97.9481C62.7773 97.8559 62.5309 98.1884 62.0831 97.9732C61.9278 97.8984 61.8307 97.7977 61.6774 97.8272C61.465 97.868 61.3299 98.1233 61.3287 98.1221C61.3271 98.1209 61.5795 97.8753 61.6495 97.5311C61.6669 97.4457 61.6871 97.3401 61.6325 97.2932C61.5419 97.2147 61.2777 97.3341 61.1236 97.4558C60.8708 97.6557 60.7357 97.9263 60.7357 97.9263L60.8287 97.7871C60.7167 97.9546 60.6406 98.2641 60.3761 98.4829C60.2211 98.6107 60.0929 98.7475 59.8826 98.7564C59.7062 98.7636 59.6532 98.6916 59.5565 98.739C59.3624 98.834 59.3907 99.2664 59.3976 99.3882C59.4222 99.8469 59.6067 99.9646 59.5217 100.211C59.4449 100.433 59.2014 100.618 59.0501 100.566C58.9113 100.519 58.8604 100.276 58.8624 100.121C58.8652 99.8886 58.9898 99.7442 58.9413 99.7037C58.902 99.6714 58.771 99.7248 58.6937 99.8231C58.4979 100.073 58.7519 100.483 58.6452 100.546C58.5711 100.59 58.3458 100.452 58.2633 100.24C58.1351 99.9104 58.4174 99.5735 58.3313 99.5124C58.2702 99.4695 58.0558 99.586 57.9708 99.7745C57.8956 99.942 57.9818 100.034 58.0194 100.479C58.0465 100.804 58.0024 100.774 58.0412 100.947C58.0946 101.182 58.1933 101.306 58.1367 101.481C58.112 101.557 58.0877 101.551 58.0396 101.651C57.9923 101.749 57.9567 101.875 57.9611 102.119C57.9688 102.571 58.0995 102.677 58.0133 102.792C57.9114 102.929 57.7168 102.795 57.5214 102.95C57.3604 103.078 57.322 103.305 57.284 103.529C57.2532 103.711 57.2779 103.752 57.2362 103.951C57.2229 104.015 57.1877 104.182 57.1112 104.337C56.9858 104.591 56.7027 104.904 56.3321 104.973C56.1182 105.013 56.0445 104.941 55.7055 105.007C55.5251 105.042 55.3759 105.07 55.3569 105.151C55.3241 105.29 55.7294 105.373 55.9179 105.779C55.9948 105.945 55.9527 105.987 56.0271 106.104C56.1987 106.375 56.5817 106.409 56.8325 106.443C57.1246 106.482 57.5319 106.606 58.3458 106.853C58.866 107.011 59.2531 107.183 59.8009 107.426C60.2098 107.607 60.6253 107.773 61.0354 107.951C61.4064 108.112 61.5338 108.171 61.7429 108.173C62.1531 108.177 62.2951 107.957 62.6721 107.915C62.9913 107.879 63.1239 108.011 63.6518 108.219C64.8164 108.679 65.1093 108.408 66.0753 108.887C66.2775 108.987 66.4139 109.073 66.6663 109.132C67.1379 109.243 67.3184 109.097 67.6343 109.14L70.4372 108.926L70.4436 109.012L70.5164 108.92L73.5054 108.693C73.8913 108.478 74.3116 108.336 74.7493 108.258C75.2966 108.16 75.8569 108.163 76.3981 108.298C76.4414 108.309 76.4843 108.32 76.5271 108.332L76.5158 108.299L79.809 107.184L80.8401 108.358L80.9469 106.799L83.5127 105.932L88.6634 103.603C88.6193 103.523 88.5574 103.456 88.4761 103.428C88.358 103.388 88.2864 103.461 88.25 103.427C88.1399 103.325 88.5558 102.425 89.3689 101.684C89.8235 101.27 90.2653 101.029 90.2009 100.781C90.1771 100.689 90.0877 100.61 89.9983 100.595C89.8118 100.563 89.6455 100.813 89.4631 101.017C89.2835 101.219 89.2855 101.155 88.5153 101.717C87.7933 102.244 87.432 102.507 87.1954 102.746C86.6137 103.333 86.6707 103.552 86.1768 103.852C86.0049 103.956 85.7505 104.048 85.2416 104.232C84.6724 104.438 84.8747 104.32 84.202 104.543C83.8687 104.654 83.7182 104.716 83.6332 104.64C83.5131 104.533 83.7048 104.312 83.6409 103.99C83.5418 103.492 82.9096 103.166 82.9063 103.17C82.9047 103.172 82.9961 103.282 83.0455 103.263C83.13 103.23 83.1333 102.795 82.9314 102.456C82.6968 102.061 82.3258 102.035 82.3125 101.764C82.3044 101.6 82.4334 101.47 82.5107 101.393C82.7259 101.178 82.9185 101.223 83.4925 101.018C83.77 100.919 83.9087 100.87 84.0038 100.782C84.2263 100.575 84.2068 100.363 84.4289 100.261C84.5584 100.201 84.5879 100.264 84.8294 100.227C84.9366 100.211 85.3872 100.143 85.4685 99.8748C85.5025 99.7632 85.4746 99.6087 85.3941 99.5727C85.2562 99.5116 85.1073 99.8611 84.8363 99.8789C84.4718 99.9023 84.0936 99.3122 84.1648 99.2272C84.2279 99.1516 84.708 99.402 84.6923 99.455C84.6753 99.5096 84.0843 99.4865 83.9156 99.1859C83.8529 99.0747 83.7813 98.8069 83.7772 98.7911C83.7408 98.6536 83.7283 98.561 83.6676 98.5412C83.5887 98.5153 83.5285 98.6455 83.4585 98.6277C83.3331 98.5958 83.4609 98.1593 83.217 97.8612C83.1288 97.7536 83.0228 97.701 82.9468 97.663L82.9476 97.6625Z" fill="#FEFEFE"/>
<path d="M84.4097 103.408C84.3102 103.313 84.0278 103.372 83.9421 103.56C83.8664 103.727 83.9599 103.958 84.0946 103.99C84.2345 104.023 84.3866 103.832 84.4319 103.675C84.4421 103.639 84.4874 103.482 84.4097 103.408Z" fill="#FEFEFE"/>
<path d="M84.3984 101.02C84.3292 100.953 84.1642 101.02 84.0732 101.092C83.9781 101.167 83.883 101.311 83.9271 101.385C83.9785 101.469 84.2176 101.463 84.3393 101.333C84.4239 101.243 84.4627 101.083 84.398 101.02H84.3984Z" fill="#FEFEFE"/>
<path d="M64.6053 45.1606C64.6049 45.1678 64.6045 45.1737 64.6045 45.1804C64.6045 45.1745 64.6049 45.1678 64.6053 45.1606Z" fill="#FEFEFE"/>
<path d="M64.6042 45.1807C64.603 45.2088 64.6022 45.2273 64.6046 45.2273C64.6074 45.2273 64.6046 45.2064 64.6042 45.1807Z" fill="#FEFEFE"/>
<path d="M113.254 42.2479C113.345 42.3414 113.472 42.4146 113.629 42.47C112.131 39.5555 110.351 36.7676 108.297 34.1487C108.234 34.1435 108.196 34.1374 108.196 34.1374C108.075 34.1188 107.76 34.067 107.462 33.8805C106.734 33.4238 106.972 32.6969 106.237 32.1521C105.885 31.8911 105.812 32.044 105.433 31.7475C104.987 31.398 104.945 31.0752 104.531 30.538C104.22 30.1347 104.216 30.2816 103.613 29.6534C103.071 29.0895 102.875 28.7634 102.117 27.9783C101.734 27.5823 101.657 27.5329 101.63 27.5515C101.556 27.6037 101.839 28.2384 102.277 28.7909C102.621 29.2258 102.922 29.4325 102.878 29.4968C102.824 29.5765 102.315 29.3249 102.074 29.193C101.844 29.0668 101.614 28.9406 101.379 28.727C100.985 28.367 101.097 28.2299 100.617 27.611C100.42 27.3569 100.166 27.0354 99.7444 26.7574C99.6437 26.6911 99.6522 26.7057 99.312 26.501C98.8861 26.2449 98.6733 26.1171 98.5086 25.9957C98.1794 25.753 97.9444 25.5799 97.7449 25.2818C97.6891 25.1985 97.6232 25.086 97.4905 24.9096C97.4905 24.9096 97.3465 24.7179 97.1742 24.5298C96.3049 23.5792 95.0124 22.845 95.0124 22.845C94.0117 22.2762 93.9579 22.4417 92.7253 21.7479C92.3673 21.5465 91.9907 21.377 91.6436 21.1569C91.0203 20.7617 90.6987 20.4547 90.3609 20.5655C90.1279 20.6416 90.0446 20.8653 89.8496 20.8273C89.7456 20.807 89.7024 20.7302 89.5021 20.494C89.3072 20.263 89.2093 20.1473 89.1166 20.0676C88.9957 19.9632 88.6939 19.7027 88.2975 19.6861C88.1219 19.6789 88.0394 19.7238 87.9496 19.6542C87.787 19.5284 87.8351 19.2088 87.7805 19.2052C87.7461 19.2027 87.7441 19.3289 87.6717 19.3674C87.5576 19.4277 87.3813 19.2108 87.1466 19.0486C87.0047 18.9507 86.6115 18.8557 85.8247 18.6659C85.6952 18.6348 85.5569 18.6024 85.3684 18.5952C85.1977 18.5887 84.9966 18.6037 84.8753 18.6336C84.7349 18.5078 84.5027 18.3084 84.1864 18.0038C83.9813 17.8064 83.9291 17.7461 83.9473 17.7089C84.0108 17.5786 84.8741 17.8792 85.0375 17.9362C86.2502 18.3585 86.336 18.6579 87.2785 18.9018C87.662 19.0009 87.7611 18.9811 88.3921 19.1445C89.0195 19.3071 89.3755 19.4442 89.3893 19.4103C89.4107 19.3581 88.59 18.9762 88.2692 18.8269C87.8922 18.6514 87.4355 18.4475 86.6309 18.1146C85.8498 17.7914 85.459 17.6296 85.2127 17.5499C84.2074 17.2247 84.2976 17.4103 83.4575 17.1122C83.341 17.0705 83.0906 16.9787 83.0517 17.0414C82.9826 17.1523 83.6565 17.6239 83.5837 17.7509C83.5388 17.829 83.2293 17.7461 82.9805 17.6486C82.2451 17.361 82.0502 16.9549 81.4284 16.6078C81.0644 16.4047 80.7598 16.3364 80.4042 16.2571C79.405 16.0334 78.9451 16.2631 78.0766 15.9217C78.0503 15.9116 77.4654 15.6794 77.4933 15.5645C77.5398 15.3756 79.1793 15.7627 79.9843 15.7377C78.9973 15.4889 78.0062 15.2672 77.0119 15.0775C77.0083 15.1119 77.0018 15.1519 76.9796 15.2033C76.9796 15.2033 76.9322 15.3133 76.8283 15.4039C76.4751 15.7102 75.1536 15.1572 75.0957 15.1325C74.9319 15.0629 74.847 15.0176 74.8138 14.9266C74.7883 14.8562 74.8053 14.7842 74.8449 14.7126C67.2668 13.597 59.5632 14.1726 52.2993 16.3315C52.4049 16.393 52.5291 16.4229 52.555 16.4286C53.0032 16.5285 53.4 16.2506 53.6872 16.092C53.9222 15.9626 54.5067 15.8627 55.6758 15.6624C56.7712 15.4747 58.1923 15.3028 58.2093 15.3967C58.2275 15.4937 56.7186 15.8372 56.734 15.9059C56.7457 15.9577 57.6251 15.8894 58.4722 15.7745C58.8747 15.7199 59.2541 15.6568 59.3395 15.8145C59.3832 15.8954 59.3468 16.0281 59.2691 16.1074C59.0325 16.3477 58.5737 15.9298 57.9548 16.0572C57.7344 16.1029 57.5034 16.2785 57.0422 16.6292C56.4201 17.1029 56.4419 17.2214 56.0827 17.384C55.8198 17.503 55.387 17.6992 54.9913 17.5467C54.7903 17.469 54.6317 17.3141 54.3101 17.3039C54.1928 17.3003 54.0986 17.3173 54.078 17.2744C54.0266 17.1668 54.5516 16.9168 54.5088 16.7449C54.4582 16.5422 53.6548 16.5823 53.5432 16.5884C53.059 16.6151 52.8037 16.7113 52.292 16.8202C51.6286 16.9613 51.7067 16.874 51.0469 17.0054C50.8471 17.0451 50.0195 17.2166 49.1121 17.6935C49.1121 17.6935 48.6198 17.9524 48.651 18.0309C48.6821 18.1089 49.2351 17.9423 49.2699 18.0345C49.2925 18.0944 49.0757 18.204 49.0972 18.2546C49.1222 18.314 49.437 18.1971 49.8597 18.1696C49.8904 18.1676 50.4628 18.132 50.4842 18.2275C50.5069 18.3282 49.9001 18.5179 48.8965 18.8925C47.2611 19.5029 46.4435 19.8079 46.2554 19.926C45.8833 20.159 45.3659 20.5393 44.9582 20.3827C44.9388 20.3754 44.6884 20.2767 44.692 20.1538C44.6952 20.0405 44.9125 19.9689 44.9015 19.9414C44.8837 19.8961 44.3093 20.1392 44.2474 20.0401C44.2151 19.9887 44.3247 19.8483 44.6354 19.5615C45.052 19.1769 45.3044 19.0142 45.4517 18.901C36.9662 22.7791 29.4131 28.9766 23.836 37.2942C21.1763 41.2605 19.1339 45.4594 17.6846 49.778H19.8952C20.3641 48.3185 20.6642 47.4876 21.0772 46.8553C21.8122 45.7296 22.3648 45.5864 22.8397 44.5775C22.917 44.4137 23.0747 44.0508 23.4299 43.6973C23.5779 43.5501 23.7017 43.4623 24.368 43.0501C25.0047 42.6557 25.3234 42.4587 25.4452 42.3952C26.0588 42.076 26.2388 42.0776 26.7853 41.7487C27.0867 41.5675 27.2841 41.4154 27.4055 41.3248C28.189 40.7411 28.8229 40.4826 30.3346 39.6615C31.5036 39.0264 32.0881 38.7088 32.4809 38.4139C32.8122 38.1652 33.3122 37.5713 34.3121 36.3841C34.3546 36.3335 34.639 35.9917 34.5532 35.874C34.4849 35.7801 34.2632 35.9428 34.0039 35.8416C33.7123 35.7276 33.7009 35.408 33.4946 35.3991C33.3061 35.3914 33.2252 35.6547 33.0764 35.6224C32.9093 35.586 32.9485 35.2409 32.7451 35.1649C32.5772 35.1022 32.4607 35.3032 32.2572 35.2409C32.0922 35.1904 32.1168 35.0415 31.9409 34.9614C31.6982 34.851 31.4725 35.0528 31.3762 34.9521C31.3361 34.91 31.3458 34.8441 31.4627 34.4728C31.6266 33.9517 31.68 33.8494 31.7431 33.7539C31.8167 33.6431 31.8822 33.544 32.0068 33.4607C32.0691 33.419 32.148 33.3846 32.5024 33.3227C32.8943 33.2544 32.9619 33.2693 33.0209 33.2001C33.1237 33.0808 33.0371 32.9016 32.9914 32.6431C32.9081 32.1719 33.0088 31.7115 33.1338 31.4288C33.3203 31.0077 33.5428 31.0603 33.7628 30.5409C33.9048 30.2055 33.8336 30.1614 33.9736 29.8759C34.1374 29.5409 34.3664 29.3354 34.796 28.9499C35.1192 28.6595 35.213 28.6243 35.3546 28.4176C35.5496 28.1336 35.6009 27.8678 35.6272 27.7606C35.728 27.3517 36.0338 26.9362 38.0244 25.338C38.901 24.6342 38.7913 24.7551 39.102 24.4821C39.998 23.6953 40.1157 23.3862 40.8552 22.7693C41.6007 22.1472 42.4259 21.6723 42.4825 21.7447C42.5254 21.7993 42.0453 22.2419 41.0862 23.1257C40.3257 23.8267 40.0021 24.0897 39.5967 24.6459C39.2323 25.1459 39.3399 25.1438 39.115 25.3643C38.4548 26.0111 37.7441 25.8153 37.3557 26.4351C37.2178 26.6555 37.3137 26.6705 37.1065 27.1078C36.9524 27.4326 36.7777 27.6814 36.4694 28.0576C35.8335 28.8342 35.6806 28.871 35.2357 29.4467C34.8643 29.9272 34.9739 29.8973 34.5832 30.4195C33.8648 31.3802 33.5383 31.4207 33.4497 31.9098C33.3567 32.4211 33.5958 33.0234 33.9877 33.2111C34.1969 33.3114 34.2915 33.2175 34.7693 33.1977C35.2199 33.1787 35.2765 33.2564 36.463 33.4267C37.1065 33.5189 37.431 33.5638 37.5847 33.5068C38.096 33.3167 38.1627 32.845 38.6388 32.7362C38.8561 32.6864 39.1882 32.7511 39.4584 32.9162C39.6857 33.0553 39.7476 33.2022 39.9191 33.1961C40.1392 33.188 40.1776 32.9421 40.4264 32.919C40.574 32.9053 40.5918 32.989 40.909 33.0727C41.1193 33.1281 41.2249 33.1557 41.3511 33.1362C41.6828 33.0853 41.7184 32.7867 41.9858 32.7811C42.1881 32.777 42.241 32.9461 42.4874 32.9348C42.6193 32.9287 42.7139 32.8753 42.8114 32.8183C43.1739 32.6063 43.1504 32.3685 43.472 32.1905C43.633 32.1011 43.8769 32.0287 43.9712 32.1225C44.0715 32.2216 43.9469 32.455 44.0136 32.491C44.0784 32.5262 44.2256 32.3211 44.4351 32.144C44.7353 31.8907 45.0443 31.7953 45.1588 31.7601C45.6078 31.6217 45.785 31.7548 46.2267 31.557C46.4266 31.4676 46.539 31.3738 46.5467 31.2678C46.5528 31.1853 46.4905 31.1646 46.463 31.0356C46.4249 30.8548 46.5038 30.6914 46.5338 30.6295C46.6292 30.4317 46.732 30.4341 46.732 30.3342C46.732 30.193 46.5269 30.157 46.3412 29.9212C46.3157 29.8888 46.1754 29.7108 46.1478 29.5142C46.086 29.0737 46.6106 28.6599 46.7101 28.5814C46.9763 28.3715 47.2214 28.2978 47.6142 27.9281C47.7129 27.8355 47.7635 27.7776 47.7481 27.7283C47.7044 27.5867 47.1345 27.5543 46.6543 27.7631C46.3517 27.8945 46.4067 27.9819 46.0585 28.1445C45.8837 28.2262 45.4695 28.3913 45.0108 28.2982C44.8748 28.2707 44.6936 28.2315 44.5994 28.0851C44.5282 27.9742 44.5702 27.9006 44.4954 27.8266C44.3587 27.6919 44.1208 27.8432 44.0084 27.7267C43.9267 27.6425 43.938 27.4455 44.027 27.3234C44.1928 27.096 44.5181 27.2805 44.9299 27.0851C45.2939 26.9124 45.5467 26.5277 45.4743 26.4047C45.4205 26.3133 45.1625 26.3266 44.978 26.412C44.7284 26.5277 44.6778 26.7449 44.3882 26.8226C44.3296 26.8379 44.2329 26.8642 44.2082 26.8278C44.1831 26.7906 44.2325 26.6854 44.8979 26.0435C45.3263 25.6297 45.3461 25.6345 45.4796 25.4764C45.8081 25.0876 45.7138 25.0298 46.0038 24.6944C46.3598 24.283 46.5087 24.3623 46.827 23.9364C46.9674 23.7487 47.0042 23.6455 47.1502 23.5861C47.327 23.5141 47.5163 23.5666 47.8347 23.6544C48.0292 23.7082 48.1271 23.7361 48.1478 23.7887C48.17 23.8445 48.1631 23.9647 47.4637 24.6022C47.073 24.9582 46.9779 25.0095 46.9629 25.1608C46.9403 25.393 47.1377 25.5362 47.06 25.8052C47.0289 25.9128 46.9925 25.9064 46.9492 26.0459C46.8833 26.2591 46.9156 26.4452 46.9306 26.5245C46.9666 26.7174 47.0434 26.8436 47.147 27.0095C47.3351 27.3116 47.4293 27.4625 47.5895 27.4953C47.7922 27.5365 47.8678 27.346 48.1644 27.3517C48.3367 27.3549 48.5543 27.4237 48.5673 27.5212C48.5814 27.6259 48.3488 27.6927 47.9742 28.0301C47.7817 28.2036 47.759 28.2614 47.759 28.3136C47.7582 28.4698 47.9556 28.526 48.1263 28.7614C48.2473 28.9281 48.2364 29.0215 48.3221 29.2582C48.3634 29.3714 48.6469 30.1513 49.1837 30.3022C49.3617 30.352 49.4046 30.2872 49.6481 30.286C50.0878 30.2832 50.3042 30.4919 51.3139 31.1638C51.9118 31.5615 52.3389 31.8228 52.2835 31.9902C52.2487 32.095 52.055 32.074 52.0101 32.2099C51.9502 32.3919 52.2633 32.5291 52.2406 32.7673C52.2188 32.9987 51.9102 33.0149 51.8649 33.2713C51.8285 33.4785 52.0153 33.5497 52.0461 33.8462C52.0554 33.9372 52.0525 34.0711 51.9025 34.4173C51.6679 34.959 51.5247 34.978 51.4215 35.266C51.3406 35.4917 51.4138 35.8671 51.5603 36.6183C51.682 37.2445 51.773 37.3929 51.6966 37.6923C51.6764 37.7712 51.6428 37.8678 51.6929 37.9419C51.8301 38.1429 52.4029 37.8962 52.4615 38.0163C52.5097 38.1158 52.1363 38.3152 51.7775 38.8298C51.7087 38.9281 51.659 39.0118 51.5615 39.189C51.144 39.9495 51.015 40.3143 50.771 40.7621C50.2428 41.7322 49.9256 41.7128 49.8034 42.3551C49.7136 42.8276 49.8843 42.8422 49.8241 43.3009C49.6764 44.427 48.6211 44.5533 48.5126 45.5196C48.4301 46.2538 48.9879 46.6466 48.6939 47.1276C48.5317 47.3929 48.3557 47.2833 47.9961 47.6421C47.6195 48.0179 47.4807 48.4698 47.3428 48.9167C47.2417 49.2456 47.1911 49.4098 47.2016 49.6534C47.2028 49.678 47.2048 49.7213 47.2101 49.7767H51.3357C51.4365 49.676 51.5384 49.5587 51.6355 49.4272C51.9963 48.937 51.8964 48.78 52.1893 48.4888C52.5869 48.0936 52.864 48.2897 53.2527 47.9924C53.9966 47.4229 53.4894 46.3109 54.2276 45.825C54.5707 45.5989 55.0791 45.5771 55.1734 45.7288C55.2377 45.8319 55.1026 45.999 55.1608 46.0479C55.2559 46.1272 55.5896 45.6685 56.0148 45.7138C56.1693 45.73 56.1438 45.7927 56.4088 45.8772C56.5775 45.931 56.9282 46.0435 57.2445 45.9084C57.4678 45.8133 57.4387 45.6952 57.6397 45.6195C57.8982 45.5225 58.0632 45.6734 58.4168 45.7377C58.689 45.7874 59.0143 45.7138 59.6647 45.567C60.176 45.4517 60.1509 45.4213 60.5821 45.3259C61.1954 45.1904 61.5016 45.1228 61.8592 45.1495C62.6156 45.2061 62.9785 45.5937 63.3211 45.374C63.5133 45.2506 63.6528 45.0674 63.6528 45.0674C63.7871 44.8906 63.7685 44.8174 63.8741 44.7373C64.0468 44.6062 64.3547 44.6058 64.495 44.7507C64.6046 44.8635 64.6071 45.0581 64.6042 45.1596C64.6054 45.1285 64.6111 45.0933 64.6334 45.0698C64.7495 44.9485 65.3057 45.1358 65.387 45.4488C65.4448 45.6734 65.2191 45.8093 65.2871 45.9359C65.4165 46.1778 66.2583 45.728 66.6737 46.0847C66.9476 46.3202 66.7724 46.681 67.037 46.8574C67.4185 47.111 68.056 46.5459 68.2327 46.7271C68.4111 46.91 67.7582 47.4836 67.7465 48.3913C67.7396 48.9374 67.9662 49.4794 68.1373 49.6683C68.1162 49.7019 68.0952 49.7383 68.0746 49.7767H96.1208C96.3097 49.4766 96.8983 49.1675 97.4241 49.2484C97.9897 49.3354 98.1806 49.8253 98.5718 49.7157C98.795 49.653 98.986 49.4224 98.9617 49.2468C98.935 49.0531 98.6676 49.0765 98.3537 48.7634C98.0507 48.4613 98.1074 48.2477 97.8562 48.153C97.6709 48.083 97.4496 48.1275 97.2992 48.1575C97.0459 48.208 96.9185 48.2995 96.8639 48.2432C96.8125 48.1906 96.8886 48.0721 96.9403 47.8662C96.9403 47.8662 97.0035 47.6154 96.9768 47.2861C96.9302 46.717 96.3526 46.3614 96.4165 46.2809C96.4715 46.2118 96.8275 46.5625 97.1357 46.4484C97.4266 46.3404 97.4104 45.9169 97.6567 45.878C97.8671 45.8453 97.9609 46.141 98.2101 46.1232C98.4807 46.1038 98.5612 45.7413 98.7214 45.7737C98.8905 45.8076 99.0272 46.2563 98.8675 46.4759C98.755 46.6312 98.5637 46.5778 98.5014 46.7214C98.4193 46.9095 98.6923 47.1276 98.6073 47.2586C98.5321 47.3743 98.2692 47.2801 98.2417 47.3533C98.2138 47.4273 98.4354 47.6429 98.7194 47.7113C99.1174 47.8072 99.2521 47.5212 99.6514 47.5426C100.134 47.5689 100.585 48.0224 100.719 48.4855C100.757 48.615 100.824 48.8472 100.732 49.0858C100.644 49.3168 100.488 49.3415 100.429 49.5753C100.427 49.5838 100.408 49.6659 100.412 49.7763H102.227C102.154 49.5146 102.141 49.3581 102.226 49.2436C102.286 49.1635 102.371 49.1356 102.456 49.1081C102.756 49.0094 102.913 49.1615 103.169 49.0955C103.324 49.0559 103.414 48.9625 103.565 48.8063C103.918 48.4406 103.839 48.1826 104.057 48.0911C104.36 47.9637 104.711 48.38 104.907 48.2327C105.038 48.1332 104.958 47.884 105.044 47.8589C105.131 47.8339 105.241 48.0802 105.507 48.4087C105.754 48.7145 105.878 48.8674 106.039 48.8917C106.1 48.901 106.259 48.9087 106.899 48.2845C107.355 47.8407 107.334 47.7792 107.635 47.5438C107.979 47.2756 108.08 47.2983 108.191 47.1102C108.363 46.8185 108.202 46.6276 108.298 46.1992C108.4 45.7417 108.629 45.7636 108.747 45.3793C108.981 44.6147 108.276 43.8725 108.484 43.7046C108.574 43.6318 108.772 43.7163 108.887 43.7984C109.116 43.9623 109.215 44.2596 109.248 45.3631C109.283 46.5524 109.177 46.5184 109.282 46.9852C109.371 47.3877 109.494 47.6085 109.49 48.0826C109.489 48.2966 109.461 48.6037 109.512 48.6134C109.564 48.6235 109.613 48.3177 109.745 48.3035C109.911 48.2857 110.073 48.7428 110.101 48.7307C110.122 48.7218 110.054 48.441 109.796 47.7954C109.564 47.2162 109.454 47.0325 109.486 46.7182C109.508 46.4945 109.6 46.2247 109.725 46.2114C109.834 46.1992 109.916 46.3869 109.96 46.3687C110.043 46.3335 109.824 45.6345 109.779 45.4921C109.196 43.6419 109.176 43.7426 109.167 43.5323C109.164 43.4683 109.143 42.9489 108.946 42.5655C108.905 42.4854 108.835 42.3709 108.706 42.3037C108.552 42.2241 108.475 42.294 108.363 42.2508C108.049 42.1278 108.261 41.4162 107.852 41.11C107.735 41.0226 107.558 40.9608 107.473 41.0239C107.378 41.0955 107.455 41.2856 107.364 41.337C107.287 41.3802 107.124 41.3058 107.063 41.1853C106.969 41.0016 107.136 40.7609 107.083 40.729C107.034 40.6994 106.899 40.9142 106.812 40.8831C106.723 40.8507 106.825 40.6076 106.709 40.3605C106.601 40.1303 106.431 40.1683 106.234 39.8912C106.213 39.8609 105.965 39.5061 106.077 39.3492C106.166 39.2254 106.38 39.3621 106.704 39.2157C106.806 39.1692 106.881 39.1065 107.03 38.9807C107.165 38.8666 107.214 38.8027 107.491 38.5175C107.651 38.3537 107.73 38.2715 107.743 38.2667C108.053 38.1518 108.283 38.7226 109.11 39.1332C109.378 39.2662 109.53 39.2938 109.682 39.4827C109.857 39.7027 109.798 39.8483 109.978 40.1177C110.183 40.4256 110.524 40.6295 110.599 40.5684C110.65 40.5271 110.566 40.3819 110.404 39.9333C110.242 39.4835 110.114 39.1299 110.178 39.0931C110.245 39.0547 110.563 39.3455 110.744 39.7254C110.843 39.9305 110.896 40.1497 110.968 40.1436C111.034 40.1384 111.045 39.9487 111.1 39.9466C111.163 39.9446 111.207 40.1946 111.284 40.4733C111.393 40.8673 111.449 40.8843 111.614 41.4336C111.759 41.9166 111.744 41.9979 111.709 42.0182C111.625 42.0667 111.418 41.7564 111.335 41.8005C111.21 41.8665 111.5 42.6569 111.637 43.0274C111.928 43.8118 111.96 43.728 112.11 44.2009C112.318 44.8615 112.251 45.0176 112.5 45.6216C112.546 45.7328 112.534 45.6932 112.789 46.2684C113.078 46.9225 113.107 47.0034 113.135 47.1049C113.276 47.6178 113.218 47.9799 113.268 47.9831C113.316 47.9868 113.439 47.6458 113.425 47.2489C113.41 46.8578 113.273 46.6956 113.165 46.0334C113.149 45.9363 113.125 45.7769 113.166 45.5807C113.21 45.3728 113.286 45.3137 113.322 45.198C113.435 44.8372 112.952 44.582 112.668 43.9198C112.456 43.4271 112.67 43.4433 112.439 42.8591C112.276 42.449 112.078 42.2054 112.02 41.7055C111.998 41.5125 111.975 41.3175 112.064 41.2645C112.298 41.1242 113.105 42.0954 113.252 42.2463L113.254 42.2479ZM62.8855 18.4653C62.6419 18.5195 62.5331 18.4487 61.934 18.331C61.3208 18.2109 61.0109 18.153 60.8358 18.2663C60.5712 18.4374 60.6982 18.7141 60.3775 19.0001C60.1635 19.1906 60.0717 19.0992 59.6724 19.2998C59.1287 19.5737 59.1611 19.8127 58.7347 19.947C58.3703 20.0619 58.2687 19.9114 57.9297 20.0457C57.6344 20.1627 57.5216 20.352 57.2785 20.6165C57.1684 20.7363 56.6232 21.3297 55.9452 21.6031C55.2745 21.8737 54.514 21.8155 54.4368 21.5991C54.3809 21.4425 54.7041 21.2605 54.6317 21.0578C54.5597 20.8568 54.1953 20.9102 54.122 20.716C54.0407 20.5004 54.3967 20.1837 54.4331 20.1521C54.8182 19.816 55.0751 19.9822 55.7264 19.6756C56.1705 19.4669 56.2308 19.3051 56.501 19.3221C56.8695 19.3451 57.0726 19.6659 57.1968 19.587C57.329 19.5029 57.0714 19.153 57.2065 18.8209C57.3197 18.5422 57.5972 18.5527 58.5005 18.1433C58.9896 17.9216 58.9973 17.8784 59.4378 17.6971C59.7432 17.5717 60.0247 17.4556 60.3593 17.3747C61.252 17.1583 61.9959 17.3169 62.417 17.4111C62.8855 17.5163 63.5205 17.6587 63.5452 17.9326C63.5642 18.1457 63.2087 18.3925 62.8863 18.4649L62.8855 18.4653Z" fill="#FEFEFE"/>
<path fill-rule="evenodd" clip-rule="evenodd" d="M9.13659 49.7778H123.864C123.975 50.294 124.085 50.8106 124.19 51.3304H8.81055C8.91572 50.8106 9.02534 50.294 9.13659 49.7778V49.7778Z" fill="#FEFEFE"/>
<path fill-rule="evenodd" clip-rule="evenodd" d="M9.13659 81.6689H123.864C123.975 82.1851 124.085 82.7017 124.19 83.2215H8.81055C8.91572 82.7017 9.02534 82.1851 9.13659 81.6689V81.6689Z" fill="#FEFEFE"/>
<path d="M6.09424 63.4427H10.2765C10.8072 63.4427 11.2465 63.4969 11.5969 63.6033C11.9472 63.7117 12.2473 63.8763 12.4993 64.0952C12.7509 64.314 12.9447 64.5737 13.0802 64.8755C13.2177 65.1756 13.2853 65.4932 13.2853 65.8301C13.2853 66.5061 13.026 67.0732 12.505 67.5319C11.984 67.989 11.266 68.2176 10.3501 68.2176H8.99865V69.7005C8.99865 69.8846 9.012 70.0027 9.03951 70.0508C9.07228 70.1244 9.12446 70.1766 9.19444 70.2114C9.26402 70.2442 9.38213 70.2616 9.54879 70.2616H9.95169V71.3538H6.09464V70.2616H6.36162C6.59786 70.2616 6.75481 70.2442 6.83005 70.2114C6.9057 70.1766 6.96192 70.1224 6.99469 70.0488C7.02948 69.9752 7.04687 69.8223 7.04687 69.5917V65.2391C7.04687 64.9952 7.0315 64.8362 7.00035 64.759C6.97123 64.6817 6.92309 64.6235 6.85513 64.5887C6.7892 64.5519 6.66339 64.5345 6.4757 64.5345H6.09424V63.4423V63.4427ZM8.99865 64.7323V66.9858H9.67622C10.0884 66.9858 10.3926 66.9434 10.5864 66.858C10.7801 66.7731 10.9351 66.6412 11.0532 66.4648C11.1713 66.2888 11.2291 66.0797 11.2291 65.8354C11.2291 65.4713 11.0896 65.1829 10.8089 64.9701C10.5997 64.8112 10.2899 64.7319 9.88131 64.7319H8.99825L8.99865 64.7323ZM14.1089 63.4427H20.7114L21.6139 65.9559L20.5856 66.3257C20.4112 65.9135 20.2078 65.5822 19.9756 65.3326C19.7434 65.081 19.4857 64.9143 19.205 64.8314C18.9242 64.7501 18.595 64.7092 18.2212 64.7092H17.0129V66.6958H17.4061C17.7002 66.6958 17.9 66.6744 18.0023 66.6299C18.1051 66.5874 18.1783 66.5174 18.2232 66.4248C18.2677 66.3317 18.2908 66.1481 18.2908 65.871V65.5688H19.313V68.9145H18.2908V68.5719C18.2908 68.3397 18.2637 68.169 18.2095 68.0626C18.1553 67.9563 18.0816 67.8826 17.989 67.8458C17.8939 67.807 17.6868 67.788 17.3656 67.788H17.0133V69.6059C17.0133 69.7976 17.023 69.9157 17.0424 69.9582C17.0598 69.9986 17.0983 70.0318 17.1529 70.0533C17.2071 70.0763 17.3252 70.088 17.5072 70.088H18.1714C18.667 70.088 19.0832 70.0164 19.4242 69.8753C19.7648 69.7321 20.069 69.5015 20.3344 69.186C20.6014 68.8684 20.8068 68.491 20.95 68.0554L21.986 68.4117L20.948 71.3546H14.1093V70.2624H14.3067C14.5721 70.2624 14.75 70.243 14.8411 70.2062C14.9321 70.1677 14.996 70.1018 15.0328 70.0067C15.0522 69.9505 15.0619 69.7899 15.0619 69.5246V65.2108C15.0619 64.9766 15.0466 64.8217 15.0134 64.7501C14.9822 64.6785 14.9321 64.6243 14.8621 64.5895C14.7945 64.5527 14.6606 64.5353 14.4612 64.5353H14.1089V63.4431V63.4427ZM28.9428 63.4427H29.7482L30.5249 66.2832L29.4695 66.589C29.1172 65.9131 28.7859 65.4349 28.4764 65.1522C28.0448 64.763 27.578 64.5693 27.0744 64.5693C26.7083 64.5693 26.3657 64.672 26.0461 64.8751C25.7266 65.0781 25.4729 65.3783 25.2852 65.7735C25.0975 66.1703 25.0045 66.6331 25.0045 67.1658C25.0045 67.9753 25.2193 68.6722 25.6493 69.2568C26.0773 69.8413 26.6408 70.1338 27.3357 70.1338C27.7791 70.1338 28.203 70.008 28.6116 69.7543C29.1225 69.4424 29.5642 69.0226 29.9339 68.4939L30.8129 69.1463C30.2417 69.9246 29.7207 70.4667 29.2483 70.7729C28.5181 71.2454 27.7071 71.4816 26.8107 71.4816C26.0672 71.4816 25.3932 71.3036 24.7893 70.9472C24.187 70.5909 23.7068 70.0913 23.3468 69.4505C22.9884 68.8078 22.8084 68.1088 22.8084 67.3499C22.8084 66.5947 22.9827 65.9074 23.333 65.2877C23.6817 64.6663 24.1578 64.1821 24.7622 63.8355C25.3641 63.4888 26.036 63.3145 26.7759 63.3145C27.5291 63.3145 28.1872 63.4714 28.7548 63.7829L28.9424 63.4423L28.9428 63.4427ZM40.4719 63.4427V64.5349H40.1487C39.8741 64.5349 39.6997 64.5753 39.6277 64.655C39.5561 64.7347 39.5193 64.9301 39.5193 65.2436V69.5359C39.5193 69.8652 39.5577 70.0682 39.6354 70.1459C39.7131 70.2231 39.9161 70.262 40.2454 70.262H40.4719V71.3542H36.6036V70.262H36.8592C37.1768 70.262 37.3742 70.2195 37.4518 70.1342C37.5291 70.0492 37.5679 69.8494 37.5679 69.5339V64.674H34.6752V69.5339C34.6752 69.8631 34.712 70.0682 34.7836 70.1459C34.8552 70.2231 35.0506 70.262 35.3722 70.262H35.6392V71.3542H31.7708V70.262H32.0342C32.346 70.262 32.5374 70.2195 32.613 70.1342C32.6866 70.0492 32.7234 69.8708 32.7234 69.5978V65.2954C32.7234 64.9584 32.6866 64.7476 32.613 64.6623C32.5374 64.5773 32.3748 64.5345 32.1252 64.5345H31.7708V63.4423H40.4719V63.4427ZM49.4121 64.5349H49.2649L49.1217 64.5292C48.7964 64.5292 48.5468 64.7092 48.3685 65.0692L45.8572 70.0876C45.373 71.0637 44.6566 71.5516 43.7044 71.5516C43.2979 71.5516 42.9472 71.4468 42.6567 71.2397C42.3663 71.0326 42.221 70.7519 42.221 70.3955C42.221 70.1398 42.3044 69.927 42.471 69.7584C42.6377 69.5901 42.8193 69.5068 43.0151 69.5068C43.3035 69.5068 43.5572 69.6423 43.7817 69.9113C43.8783 70.0294 43.9754 70.0872 44.0741 70.0872C44.2096 70.0872 44.3201 70.0427 44.4054 69.9558C44.4924 69.8668 44.6008 69.6771 44.7327 69.3886L44.8856 69.044L42.2251 65.0688C42.0645 64.8193 41.9326 64.668 41.8319 64.6138C41.7312 64.5616 41.5398 64.5345 41.2571 64.5345V63.4423H45.1837V64.5345H44.7133C44.5175 64.5345 44.4192 64.6061 44.4192 64.7493C44.4192 64.8633 44.4754 65.0126 44.5895 65.1926L45.8576 67.1521L46.8159 65.1327C46.9167 64.9196 46.9688 64.7784 46.9688 64.7104C46.9688 64.5923 46.843 64.5345 46.593 64.5345H46.1942V63.4423H49.4121V64.5345V64.5349ZM52.9755 66.5793H54.78C55.6958 66.5793 56.4143 66.8078 56.9349 67.2649C57.4559 67.7237 57.7152 68.2912 57.7152 68.9728C57.7152 69.6038 57.4789 70.1576 57.0065 70.6358C56.532 71.1139 55.7691 71.3542 54.7141 71.3542H50.0711V70.262H50.4525C50.7118 70.262 50.8708 70.2195 50.9327 70.1325C50.9925 70.0456 51.0237 69.8554 51.0237 69.5634V65.2108C51.0237 64.9341 50.9849 64.7521 50.9096 64.6651C50.834 64.5782 50.6443 64.5353 50.3384 64.5353H50.0715V63.4431H56.674L57.5764 65.9446L56.5502 66.3123C56.2889 65.7003 55.979 65.2804 55.6226 65.0518C55.2642 64.8233 54.7861 64.7092 54.1842 64.7092H52.9759V66.5793H52.9755ZM52.9755 70.0646H54.3096C54.7897 70.0646 55.1344 69.9562 55.3435 69.7373C55.5547 69.5205 55.659 69.2628 55.659 68.9627C55.659 68.6876 55.5854 68.4574 55.4402 68.2754C55.295 68.0954 55.1267 67.9716 54.9349 67.9077C54.7452 67.8438 54.4681 67.811 54.1045 67.811H52.9759V70.0646H52.9755ZM62.2389 65.5223L60.7207 69.6309C60.6588 69.7936 60.6297 69.906 60.6297 69.9659C60.6297 70.0763 60.6819 70.1536 60.7883 70.1961C60.8951 70.2405 61.1078 70.262 61.4311 70.262V71.3542H58.3757V70.262C58.6371 70.262 58.8191 70.2252 58.9235 70.1536C59.0282 70.082 59.1286 69.923 59.2273 69.6771L61.6556 63.4423H63.4407L65.8221 69.5529C65.9305 69.8316 66.0332 70.0197 66.1299 70.1164C66.2266 70.213 66.422 70.2616 66.7164 70.2616V71.3538H62.9755V70.2616L63.202 70.2559C63.5758 70.2482 63.7615 70.1532 63.7615 69.9732C63.7615 69.8959 63.7267 69.7563 63.6551 69.5529L62.2377 65.5219L62.2389 65.5223ZM67.5061 63.4427H71.3744V64.5349H71.0144C70.7648 64.5349 70.6002 64.5737 70.5245 64.6489C70.4489 64.7246 70.4105 64.922 70.4105 65.2432V67.8725L73.3032 65.1736C73.3032 64.854 73.2607 64.6684 73.1753 64.6142C73.0904 64.562 72.912 64.5349 72.6389 64.5349H72.3388V63.4427H76.2072V64.5349H75.884C75.6093 64.5349 75.4349 64.5753 75.3629 64.655C75.2913 64.7347 75.2545 64.9301 75.2545 65.2436V69.5359C75.2545 69.8652 75.293 70.0682 75.3706 70.1459C75.4483 70.2231 75.6514 70.262 75.9806 70.262H76.2072V71.3542H72.3388V70.262H72.5944C72.912 70.262 73.1094 70.2195 73.1871 70.1342C73.2643 70.0492 73.3032 69.8478 73.3032 69.5339V66.8637L70.4105 69.5298C70.4145 69.8008 70.4279 69.9711 70.4509 70.0448C70.4724 70.1164 70.5245 70.1706 70.6038 70.2074C70.6831 70.2442 70.8518 70.2616 71.107 70.2616H71.374V71.3538H67.5057V70.2616H67.769C68.0809 70.2616 68.2722 70.2191 68.3478 70.1338C68.4215 70.0488 68.4583 69.8704 68.4583 69.5974V65.295C68.4583 64.958 68.4215 64.7472 68.3478 64.6619C68.2722 64.5769 68.1096 64.5341 67.86 64.5341H67.5057V63.4419L67.5061 63.4427ZM77.4219 63.4427H81.279V64.5349H81.0274C80.7834 64.5349 80.6342 64.5482 80.5779 64.5753C80.489 64.6162 80.425 64.674 80.3842 64.7497C80.3454 64.8253 80.3259 64.9685 80.3259 65.1756V67.2803L82.787 64.9976C82.8974 64.8949 82.963 64.8253 82.9864 64.7885C83.0079 64.7537 83.0196 64.7205 83.0196 64.6955C83.0196 64.6413 82.9982 64.6004 82.9537 64.5753C82.9112 64.5482 82.8008 64.5349 82.6207 64.5349H82.3012V63.4427H85.8908V64.5349H85.7707C85.604 64.5349 85.4879 64.5426 85.424 64.56C85.3601 64.5773 85.2808 64.6142 85.1878 64.6704C85.0948 64.7282 84.9746 64.8213 84.8274 64.9491L82.9108 66.6064L85.1975 69.6888C85.3949 69.9542 85.5381 70.1111 85.6291 70.1592C85.7513 70.2268 85.9273 70.262 86.1558 70.262H86.3087V71.3542H82.3008V70.262H82.4614C82.7534 70.262 82.9318 70.2486 82.9957 70.2215C83.0576 70.1965 83.0888 70.1617 83.0888 70.1188C83.0888 70.0743 83.0309 69.9659 82.9128 69.7936L81.5148 67.8127L80.3259 68.8409V69.6427C80.3259 69.8401 80.3454 69.9756 80.3822 70.0512C80.419 70.1289 80.4732 70.1811 80.5407 70.2138C80.6103 70.247 80.7499 70.2624 80.959 70.2624H81.2786V71.3546H77.4215V70.2624H77.712C77.9365 70.2624 78.0878 70.245 78.163 70.2082C78.2386 70.1734 78.2945 70.1151 78.3276 70.0359C78.3588 69.9719 78.3742 69.815 78.3742 69.5691V65.2436C78.3742 65.0094 78.3568 64.8524 78.322 64.7731C78.2892 64.6938 78.233 64.634 78.1573 64.5951C78.0817 64.5543 77.9446 64.5353 77.7472 64.5353H77.4219V63.4431V63.4427ZM89.9477 63.4427H91.7349L94.1106 69.5533C94.2404 69.8749 94.3545 70.0743 94.4532 70.1495C94.5539 70.2252 94.738 70.2616 95.005 70.2616V71.3538H91.264V70.2616L91.4905 70.2559C91.6977 70.2559 91.8429 70.2288 91.9262 70.1726C92.0095 70.1184 92.05 70.0504 92.05 69.9711C92.05 69.9032 92.0152 69.764 91.9416 69.5508L91.6997 68.8324H89.3025L89.0064 69.6318C88.9466 69.8021 88.9154 69.9125 88.9154 69.9667C88.9154 70.0266 88.9368 70.0808 88.9813 70.1313C89.0238 70.1799 89.0954 70.2163 89.1941 70.2377C89.258 70.2531 89.438 70.2608 89.7305 70.2608V71.353H86.6635V70.2608C86.8609 70.2608 87.0041 70.2434 87.0951 70.2106C87.1841 70.1758 87.2597 70.1253 87.3176 70.0577C87.3758 69.9897 87.4418 69.8619 87.5134 69.6783L89.9469 63.4419L89.9477 63.4427ZM89.7192 67.7063H91.2875L90.5205 65.5417L89.7192 67.7063ZM99.7766 64.5349V63.4427H104.272C104.96 63.4427 105.5 63.522 105.895 63.683C106.288 63.8436 106.59 64.0762 106.801 64.3763C107.012 64.6765 107.119 65.0053 107.119 65.3657C107.119 65.6271 107.062 65.875 106.95 66.1092C106.837 66.3435 106.677 66.5506 106.466 66.7286C106.255 66.9086 105.978 67.0578 105.631 67.1739C106.003 67.269 106.286 67.3734 106.483 67.4858C106.768 67.6444 106.992 67.8673 107.159 68.1537C107.326 68.4384 107.409 68.756 107.409 69.1083C107.409 69.5286 107.283 69.9157 107.029 70.2681C106.776 70.6224 106.417 70.8914 105.954 71.0755C105.492 71.2615 104.816 71.3542 103.923 71.3542H99.7762V70.262H100.09C100.299 70.262 100.44 70.2446 100.514 70.2078C100.59 70.173 100.642 70.1208 100.671 70.0549C100.702 69.9889 100.717 69.8401 100.717 69.6095V65.193C100.717 64.9588 100.702 64.8099 100.671 64.744C100.641 64.6801 100.589 64.6299 100.514 64.5911C100.44 64.5543 100.299 64.5349 100.09 64.5349H99.7762H99.7766ZM102.669 66.6493H103.539C103.992 66.6493 104.329 66.6104 104.545 66.5352C104.764 66.4596 104.927 66.3435 105.037 66.1906C105.148 66.0356 105.202 65.8576 105.202 65.6562C105.202 65.4471 105.15 65.2691 105.045 65.1198C104.942 64.9726 104.791 64.8662 104.594 64.8039C104.399 64.74 104.046 64.7092 103.539 64.7092H102.669V66.6493V66.6493ZM102.669 67.7993V69.5185C102.673 69.7608 102.683 69.9036 102.698 69.9444C102.716 69.9986 102.747 70.0355 102.791 70.0565C102.834 70.0779 102.952 70.0876 103.146 70.0876H103.723C104.058 70.0876 104.336 70.0565 104.557 69.993C104.778 69.9311 104.966 69.8012 105.121 69.6038C105.276 69.4064 105.353 69.1702 105.353 68.8931C105.353 68.6569 105.299 68.4574 105.188 68.2948C105.08 68.1322 104.915 68.008 104.696 67.9251C104.477 67.8418 104.143 67.7993 103.693 67.7993H102.669H102.669ZM114.018 66.6841C113.935 65.9891 113.698 65.4624 113.309 65.106C112.92 64.7476 112.48 64.5697 111.991 64.5697C111.069 64.5697 110.271 65.2436 109.599 66.591L108.546 66.2852L109.328 63.4427H110.126L110.177 63.9714C110.653 63.5337 111.36 63.3149 112.297 63.3149C113.42 63.3149 114.361 63.7 115.12 64.4689C115.881 65.2395 116.26 66.2193 116.26 67.4118C116.26 68.5561 115.873 69.5201 115.1 70.3045C114.328 71.0884 113.342 71.4816 112.144 71.4816C110.444 71.4816 109.149 70.7033 108.256 69.1463L109.139 68.4959L109.399 68.7843C109.716 69.156 109.96 69.4153 110.133 69.5569C110.305 69.7001 110.543 69.832 110.845 69.9537C111.149 70.0739 111.463 70.1338 111.782 70.1338C112.355 70.1338 112.847 69.9113 113.254 69.4659C113.662 69.0205 113.916 68.4611 114.019 67.7872H111.254V66.6832H114.019L114.018 66.6841ZM118.995 64.5349V63.4427H126.069V64.5349H125.75C125.473 64.5349 125.297 64.5753 125.225 64.655C125.153 64.7347 125.117 64.9301 125.117 65.2436V69.5359C125.117 69.8652 125.155 70.0682 125.233 70.1459C125.31 70.2231 125.513 70.262 125.839 70.262H126.065L126.906 72.5892L125.874 72.9573C125.696 72.5042 125.44 72.1227 125.109 71.8149C124.776 71.5071 124.243 71.3542 123.51 71.3542H120.084C119.356 71.3542 118.824 71.5071 118.491 71.8129C118.16 72.1187 117.903 72.5002 117.72 72.9573L116.694 72.5892L117.534 70.262H117.825C118.201 70.262 118.45 70.0682 118.576 69.6791L119.972 65.2877C120.009 65.1716 120.028 65.0785 120.028 65.0069C120.028 64.6914 119.802 64.5345 119.349 64.5345H118.994L118.995 64.5349ZM123.165 70.1224V64.674H121.463L120.006 69.6055C119.978 69.6924 119.967 69.7661 119.967 69.8263C119.967 70.0237 120.149 70.1224 120.514 70.1224H123.165Z" fill="#FEFEFE"/>
<path d="M27.1413 98.179L26.7388 97.7142L30.114 94.7908L29.0154 93.5222L29.4336 93.1598L32.0335 96.1613L31.6152 96.5237L30.5165 95.2552L27.1413 98.1786V98.179ZM33.787 101.246C34.0204 101.001 34.1932 100.755 34.3068 100.508C34.4205 100.261 34.4808 100.021 34.4881 99.7886C34.4941 99.5556 34.4516 99.3347 34.3598 99.1248C34.2688 98.9156 34.1357 98.7271 33.9598 98.5589C33.7842 98.3918 33.5884 98.2668 33.3756 98.1859C33.1617 98.1042 32.9392 98.0722 32.7066 98.0892C32.4752 98.1074 32.2386 98.1794 31.9967 98.3044C31.7552 98.4298 31.5177 98.6139 31.2843 98.8586C31.0509 99.1033 30.879 99.3485 30.7661 99.5968C30.6541 99.844 30.5954 100.084 30.5885 100.316C30.5825 100.549 30.6258 100.769 30.7188 100.977C30.8098 101.186 30.9449 101.375 31.1229 101.545C31.2981 101.712 31.4922 101.837 31.7034 101.916C31.9145 101.997 32.1354 102.029 32.368 102.012C32.5994 101.994 32.8352 101.923 33.0759 101.798C33.3174 101.673 33.554 101.49 33.7874 101.245L33.787 101.246ZM34.2263 101.665C33.9638 101.94 33.6835 102.155 33.3845 102.31C33.0864 102.465 32.7842 102.555 32.4784 102.581C32.1718 102.607 31.8713 102.568 31.5751 102.465C31.2782 102.36 31.0024 102.186 30.7455 101.941C30.4793 101.687 30.2864 101.415 30.165 101.12C30.0449 100.827 29.9907 100.527 30.0044 100.222C30.017 99.9172 30.095 99.6126 30.237 99.3092C30.3802 99.005 30.5817 98.7158 30.8442 98.4403C31.1083 98.1628 31.3903 97.9472 31.6904 97.7923C31.9902 97.6374 32.2932 97.546 32.599 97.5189C32.9036 97.4926 33.2045 97.5314 33.5023 97.637C33.7992 97.7413 34.0771 97.9177 34.3356 98.1645C34.5997 98.4165 34.7918 98.6883 34.9112 98.9808C35.0317 99.2744 35.0847 99.573 35.0722 99.8776C35.0588 100.183 34.9799 100.489 34.8367 100.793C34.6936 101.097 34.4901 101.388 34.2259 101.666L34.2263 101.665ZM34.5839 104.974L34.0831 104.617L36.9912 100.527L38.125 101.333C38.2941 101.454 38.4422 101.575 38.5724 101.697C38.7019 101.82 38.8111 101.945 38.9005 102.073C39.0825 102.335 39.1748 102.598 39.1772 102.862C39.1796 103.127 39.0894 103.386 38.9082 103.641C38.7605 103.849 38.589 104.004 38.3945 104.103C38.1991 104.203 37.9855 104.249 37.7533 104.244C37.5211 104.239 37.2748 104.184 37.0106 104.078C36.7477 103.972 36.4734 103.818 36.1886 103.616C36.0531 103.519 35.9156 103.412 35.7781 103.295L34.5843 104.974L34.5839 104.974ZM36.1021 102.839C36.164 102.894 36.2303 102.951 36.3003 103.007C36.3703 103.063 36.4378 103.114 36.5034 103.161C36.7372 103.327 36.9499 103.45 37.1409 103.531C37.3318 103.612 37.5041 103.654 37.6574 103.657C37.8124 103.661 37.9483 103.628 38.0664 103.561C38.1853 103.494 38.2901 103.395 38.3815 103.267C38.4944 103.108 38.5486 102.95 38.5453 102.794C38.5409 102.638 38.4875 102.484 38.3856 102.331C38.3208 102.236 38.2359 102.142 38.1319 102.047C38.028 101.952 37.8997 101.852 37.7493 101.745L37.172 101.335L36.1021 102.839V102.839ZM38.2452 107.544L40.7467 103.193L43.5217 104.789L43.2458 105.269L41.0036 103.979L38.7779 107.85L38.2448 107.544H38.2452ZM46.8007 109.203C46.9402 108.895 47.0215 108.606 47.047 108.334C47.0725 108.063 47.0503 107.817 46.9803 107.596C46.9091 107.374 46.7958 107.179 46.6397 107.012C46.4847 106.845 46.2967 106.71 46.075 106.61C45.8545 106.51 45.628 106.457 45.4002 106.451C45.1713 106.445 44.9508 106.489 44.7368 106.582C44.5245 106.675 44.3246 106.821 44.1382 107.019C43.9517 107.217 43.7883 107.47 43.6491 107.778C43.5095 108.086 43.4286 108.374 43.4044 108.645C43.3805 108.916 43.4044 109.161 43.4744 109.383C43.5455 109.605 43.6592 109.798 43.8158 109.965C43.9707 110.132 44.1604 110.266 44.3845 110.367C44.605 110.466 44.8295 110.52 45.0552 110.525C45.2813 110.532 45.5002 110.488 45.7137 110.395C45.9261 110.302 46.1251 110.157 46.3112 109.96C46.4977 109.761 46.6607 109.51 46.7999 109.202L46.8007 109.203ZM47.3541 109.453C47.1975 109.8 47.0037 110.094 46.7732 110.34C46.543 110.585 46.2878 110.77 46.0078 110.895C45.7271 111.022 45.4302 111.084 45.1167 111.084C44.802 111.084 44.484 111.011 44.1604 110.864C43.8255 110.713 43.5532 110.52 43.3413 110.282C43.1309 110.045 42.9808 109.78 42.8923 109.487C42.8037 109.195 42.7766 108.882 42.8105 108.549C42.8449 108.214 42.9396 107.875 43.0961 107.528C43.2539 107.179 43.4489 106.882 43.6802 106.637C43.912 106.391 44.1681 106.205 44.4472 106.078C44.7259 105.953 45.0228 105.89 45.3384 105.891C45.6531 105.891 45.9739 105.966 46.2991 106.113C46.6316 106.263 46.903 106.456 47.1122 106.693C47.3229 106.93 47.4718 107.194 47.5608 107.486C47.6489 107.779 47.6756 108.093 47.6413 108.427C47.6065 108.762 47.511 109.104 47.3532 109.452L47.3541 109.453ZM51.2463 110.695C51.3858 110.765 51.5048 110.85 51.6035 110.945C51.7006 111.042 51.777 111.149 51.8316 111.266C51.8854 111.383 51.915 111.511 51.919 111.647C51.9226 111.785 51.8988 111.931 51.8458 112.088C51.8082 112.198 51.7519 112.309 51.6775 112.42C51.6039 112.531 51.51 112.632 51.3952 112.72C51.2799 112.809 51.1448 112.881 50.989 112.937C50.8325 112.992 50.6529 113.019 50.4498 113.019C50.2929 113.019 50.1254 112.999 49.9478 112.96C49.7706 112.921 49.5623 112.861 49.3232 112.78L48.1073 112.369L49.7156 107.615L50.8879 108.012C50.9959 108.048 51.0938 108.082 51.18 108.116C51.2661 108.149 51.3454 108.182 51.4166 108.215C51.4874 108.245 51.5533 108.279 51.6128 108.31C51.6727 108.342 51.7277 108.375 51.7803 108.408C51.9129 108.499 52.0278 108.598 52.1253 108.71C52.222 108.82 52.2968 108.938 52.3474 109.065C52.3983 109.19 52.4263 109.323 52.4311 109.461C52.4344 109.6 52.4117 109.742 52.3628 109.886C52.3231 110.003 52.2725 110.11 52.2082 110.208C52.1455 110.305 52.0687 110.389 51.9777 110.458C51.8866 110.527 51.7815 110.582 51.6617 110.62C51.5404 110.659 51.4036 110.679 51.2507 110.68L51.2459 110.695H51.2463ZM50.4814 110.17C50.5942 110.208 50.6941 110.236 50.7803 110.253C50.8665 110.27 50.947 110.28 51.0198 110.28C51.2172 110.281 51.3782 110.233 51.5015 110.135C51.6253 110.037 51.7167 109.903 51.7746 109.732C51.8336 109.557 51.8397 109.399 51.7928 109.259C51.7455 109.119 51.6399 108.991 51.4765 108.875C51.3956 108.818 51.2977 108.764 51.1836 108.713C51.0683 108.662 50.9308 108.61 50.7702 108.556L50.1209 108.336L49.6011 109.872L50.4809 110.17L50.4814 110.17ZM49.4244 110.396L48.8677 112.042L49.5667 112.278C49.7326 112.334 49.8883 112.379 50.0356 112.411C50.1828 112.443 50.3123 112.46 50.4227 112.461C50.5428 112.462 50.65 112.448 50.7455 112.418C50.8394 112.388 50.9207 112.348 50.9898 112.295C51.0586 112.244 51.1168 112.184 51.1617 112.115C51.2079 112.047 51.2435 111.974 51.2702 111.895C51.3005 111.805 51.3179 111.718 51.324 111.632C51.3288 111.546 51.3179 111.462 51.2904 111.384C51.2633 111.304 51.2184 111.228 51.1557 111.154C51.0918 111.08 51.0056 111.01 50.8952 110.944C50.8305 110.903 50.7528 110.865 50.6646 110.827C50.576 110.789 50.4644 110.747 50.3297 110.702L49.4244 110.395V110.396ZM52.6653 113.885L55.7821 109.454L56.2987 109.573L57.166 114.924L56.5183 114.775L56.2829 113.174L54.2211 112.699L53.3057 114.033L52.6653 113.886V113.885ZM55.8622 110.269C55.5022 110.827 55.1644 111.333 54.8509 111.785L54.5548 112.208L56.1911 112.585L56.1102 112.075C56.0264 111.522 55.9492 110.922 55.8768 110.273L55.8618 110.27L55.8622 110.269ZM58.3767 115.05L59.8714 113.164L59.8734 113.149C59.7023 113.074 59.5575 112.983 59.4397 112.874C59.3232 112.766 59.2298 112.647 59.161 112.519C59.0923 112.388 59.0453 112.25 59.0227 112.104C59 111.957 58.9984 111.806 59.0186 111.65C59.0478 111.421 59.1121 111.217 59.214 111.037C59.3143 110.857 59.4482 110.708 59.6129 110.591C59.7775 110.473 59.9729 110.389 60.1986 110.34C60.4247 110.291 60.6759 110.284 60.9542 110.319L62.7001 110.541L62.0679 115.519L61.4579 115.441L61.7087 113.466L60.4733 113.309L58.9875 115.127L58.3775 115.05L58.3767 115.05ZM60.9267 110.873C60.5558 110.826 60.2613 110.877 60.0453 111.024C59.8289 111.172 59.7007 111.399 59.661 111.71C59.6238 112.002 59.6853 112.241 59.8467 112.425C60.0065 112.61 60.2658 112.726 60.625 112.772L61.7774 112.918L62.0197 111.012L60.9267 110.873V110.873ZM68.7646 115.651L68.384 110.647L68.9968 110.6L69.1849 113.073L69.1926 113.072L71.3033 110.425L71.9166 110.378L69.771 113.046L72.4348 115.372L71.8215 115.418L69.1987 113.154L69.191 113.155L69.377 115.604L68.7638 115.651L68.7646 115.651ZM77.1882 112.05C77.1288 111.717 77.0325 111.433 76.9002 111.195C76.7679 110.957 76.6102 110.766 76.4273 110.623C76.2429 110.481 76.0398 110.384 75.8161 110.335C75.5936 110.285 75.3627 110.28 75.1232 110.323C74.8849 110.366 74.6685 110.45 74.4772 110.574C74.2846 110.698 74.1273 110.859 74.0039 111.057C73.8817 111.255 73.7996 111.488 73.7579 111.757C73.7163 112.026 73.7244 112.326 73.7838 112.659C73.8433 112.992 73.9396 113.275 74.0731 113.513C74.2065 113.749 74.3651 113.938 74.548 114.081C74.7324 114.224 74.9351 114.319 75.1588 114.367C75.3813 114.417 75.613 114.42 75.8553 114.377C76.0936 114.335 76.3092 114.252 76.4981 114.128C76.6882 114.006 76.8444 113.846 76.9682 113.649C77.0903 113.451 77.1724 113.219 77.2145 112.952C77.2562 112.683 77.2481 112.384 77.189 112.051L77.1882 112.05ZM77.7857 111.943C77.8524 112.318 77.8597 112.671 77.8088 113.004C77.7574 113.336 77.6518 113.633 77.4916 113.895C77.3318 114.158 77.1223 114.377 76.8638 114.555C76.6041 114.733 76.3003 114.852 75.9508 114.915C75.5888 114.979 75.2546 114.974 74.9456 114.898C74.6378 114.821 74.3643 114.688 74.126 114.496C73.8878 114.306 73.6884 114.063 73.5278 113.769C73.3672 113.474 73.2527 113.14 73.186 112.766C73.1184 112.389 73.1111 112.034 73.1633 111.7C73.2159 111.367 73.3211 111.068 73.4796 110.806C73.6386 110.545 73.8477 110.325 74.1087 110.147C74.3684 109.969 74.675 109.849 75.0265 109.786C75.3861 109.722 75.7186 109.727 76.0252 109.804C76.3331 109.881 76.6053 110.014 76.8436 110.204C77.0822 110.396 77.2817 110.64 77.4427 110.935C77.6033 111.231 77.7177 111.567 77.7853 111.943H77.7857ZM82.6217 113.182L82.3547 113.272L80.1978 110.837C79.9005 110.503 79.5906 110.134 79.2686 109.731L79.2407 109.74C79.4972 110.39 79.7193 110.99 79.9045 111.539L80.6824 113.838L80.1003 114.035L78.492 109.281L79.3281 108.998L81.358 111.309C81.5893 111.573 81.8571 111.897 82.1573 112.277L82.1743 112.271C82.1828 111.733 82.1981 111.314 82.2216 111.017L82.4315 107.948L83.2677 107.665L84.876 112.419L84.2935 112.616L83.5156 110.316C83.3336 109.779 83.1459 109.168 82.9513 108.485L82.9234 108.494C82.9117 109.039 82.8907 109.521 82.8575 109.938L82.6217 113.182V113.182ZM88.1866 105.531L90.254 110.104L89.6938 110.357L87.867 106.316L85.5208 107.377L87.3476 111.418L86.7874 111.671L84.7199 107.098L88.1866 105.531V105.531ZM91.648 109.331L90.9154 103.963L91.375 103.698L95.6519 107.028L95.0755 107.359L93.8138 106.347L91.9793 107.402L92.2172 109.003L91.6476 109.33L91.648 109.331ZM91.5287 104.506C91.6448 105.16 91.7419 105.76 91.8199 106.305L91.8903 106.816L93.3462 105.979L92.9396 105.66C92.5019 105.312 92.0367 104.925 91.542 104.498L91.5287 104.506V104.506ZM95.6515 103.544L97.7121 101.925L96.3683 100.215L96.8517 99.8355L99.9527 103.782L99.4693 104.161L98.0543 102.36L95.9937 103.98L97.4087 105.781L96.9253 106.16L93.8243 102.215L94.3077 101.835L95.6515 103.545V103.544ZM100.531 96.4788L100.977 96.0537L104.44 99.6858L103.995 100.11L102.429 98.4674C101.856 97.8667 101.433 97.3979 101.158 97.0638L101.142 97.0787C101.231 97.495 101.326 98.0326 101.429 98.6919L101.933 102.077L101.487 102.502L98.0244 98.8699L98.4693 98.4456L100.218 100.28C100.662 100.746 101.025 101.15 101.307 101.492L101.323 101.476C101.237 101.075 101.142 100.538 101.036 99.8642L100.532 96.4793L100.531 96.4788ZM105.685 98.3829L104.944 96.0933L104.932 96.0832C104.775 96.1844 104.62 96.2547 104.463 96.2924C104.309 96.3296 104.158 96.3413 104.013 96.3272C103.866 96.3122 103.725 96.2746 103.591 96.2123C103.456 96.1504 103.33 96.0675 103.211 95.9643C103.036 95.8134 102.903 95.6468 102.809 95.4619C102.715 95.2791 102.665 95.0853 102.659 94.8834C102.652 94.6804 102.69 94.4716 102.775 94.2569C102.858 94.0408 102.992 93.8281 103.175 93.6161L104.328 92.2856L108.121 95.5715L107.719 96.0363L106.214 94.733L105.399 95.6743L106.089 97.9185L105.686 98.3833L105.685 98.3829ZM103.622 93.945C103.377 94.2277 103.256 94.5008 103.258 94.7621C103.262 95.0242 103.38 95.2572 103.616 95.4619C103.839 95.6548 104.072 95.7362 104.315 95.7042C104.558 95.6739 104.798 95.5226 105.035 95.2487L105.796 94.3705L104.343 93.1125L103.622 93.945V93.945Z" fill="#FEFEFE"/>
</svg>
